<svg width="160" height="160" viewbox="0 0 160 160" fill="none" xmlns="http://www.w3.org/2000/svg"> 
 <path d="M159.993 79.9929L158.002 81.292C153.534 84.1847 150.311 89.6757 146.896 95.4898C146.216 96.6454 145.528 97.8082 144.826 98.9782C144.604 99.3586 144.375 99.7319 144.146 100.105H144.139C143.888 100.507 143.638 100.916 143.387 101.318C142.836 102.194 142.263 103.062 141.676 103.924C141.088 104.785 140.48 105.639 139.842 106.472C139.212 107.312 138.554 108.13 137.859 108.934C137.171 109.738 136.448 110.52 135.696 111.274C129.674 117.325 121.432 121.739 108.5 121.739H51.5002C43.9599 121.739 38.0093 120.239 33.1686 117.784C32.7032 117.547 32.2521 117.31 31.8152 117.059C31.3713 116.808 30.9416 116.55 30.5191 116.284C29.9893 115.954 29.4737 115.609 28.9724 115.25C28.4712 114.899 27.9842 114.533 27.5116 114.152C26.3659 113.248 25.2989 112.286 24.3036 111.274C23.7522 110.735 23.2295 110.183 22.7426 109.616C20.7232 107.369 18.9688 104.95 17.3648 102.481C16.8636 101.706 16.3695 100.931 15.8897 100.155C15.8754 100.141 15.8682 100.127 15.8611 100.105C15.6248 99.7176 15.3885 99.3299 15.1522 98.9495C14.8013 98.3681 14.4576 97.7939 14.121 97.2197C13.7773 96.6455 13.4407 96.0712 13.1042 95.497C12.5743 94.5854 12.0444 93.6882 11.5145 92.8053C10.9846 91.9152 10.4547 91.0467 9.91764 90.2069C9.48083 89.525 9.05119 88.8718 8.61439 88.2402C8.44969 87.9961 8.27782 87.7593 8.11313 87.5296C7.46866 86.6324 6.80987 85.7782 6.12244 84.9886V75.0042C6.98173 74.0137 7.80522 72.9226 8.60722 71.767C10.1468 69.5347 11.6076 67.0511 13.1042 64.503C13.3333 64.1154 13.5625 63.7278 13.7916 63.3402C14.2427 62.565 14.7082 61.7898 15.1736 61.0146C15.6033 60.2968 16.0401 59.5862 16.4912 58.8756C18.2456 56.0906 20.1504 53.3343 22.3702 50.7934C22.6781 50.4416 22.9932 50.09 23.3083 49.7454H23.3154C29.4236 43.1777 37.8518 38.2609 51.5002 38.2609H108.5C128.02 38.2609 136.871 48.317 143.516 58.8756C144.697 60.749 145.807 62.6439 146.896 64.4958C149.567 69.0466 152.116 73.3964 155.238 76.4541C155.861 77.0643 156.506 77.6241 157.179 78.1265C157.451 78.3275 157.723 78.5214 158.002 78.7008L159.219 79.4904L159.993 79.9929Z" fill="#3C74B8" /> 
 <path d="M159.993 79.9929L158.002 81.292C153.534 84.1847 150.311 89.6757 146.896 95.4898C146.216 96.6454 145.528 97.8082 144.826 98.9782C144.604 99.3586 144.375 99.7319 144.146 100.105H15.8611C15.6248 99.7176 15.3885 99.3299 15.1522 98.9495C14.8013 98.3681 14.4576 97.7939 14.121 97.2197C13.7773 96.6454 13.4407 96.0712 13.1042 95.497C12.5743 94.5854 12.0444 93.6882 11.5145 92.8053C10.9846 91.9152 10.4547 91.0467 9.91764 90.2069C9.48083 89.525 9.05119 88.8718 8.61439 88.2402C8.44969 87.9961 8.27782 87.7593 8.11313 87.5296C7.46866 86.6324 6.80987 85.7782 6.12244 84.9886V75.0042C6.98173 74.0137 7.80522 72.9226 8.60722 71.767C10.1468 69.5347 11.6076 67.0511 13.1042 64.503C13.3333 64.1154 13.5625 63.7278 13.7916 63.3402C14.2427 62.565 14.7082 61.7898 15.1736 61.0146C15.6033 60.2968 16.0401 59.5862 16.4912 58.8756C18.2456 56.0906 20.1504 53.3343 22.3702 50.7934C22.6781 50.4416 22.9932 50.0899 23.3083 49.7454H23.3154C29.4236 43.1777 37.8518 38.2609 51.5002 38.2609H108.5C128.02 38.2609 136.871 48.317 143.516 58.8756C144.697 60.749 145.807 62.6439 146.896 64.4958C149.567 69.0466 152.116 73.3964 155.238 76.4541C155.861 77.0643 156.506 77.6241 157.179 78.1265C157.451 78.3275 157.723 78.5214 158.002 78.7008L159.219 79.4904L159.993 79.9929Z" fill="#CD1327" /> 
 <path d="M159.219 79.4904H6.12244V75.0042C6.98173 74.0137 7.80522 72.9226 8.60722 71.767C10.1468 69.5347 11.6076 67.0511 13.1042 64.503C13.3333 64.1154 13.5625 63.7278 13.7916 63.3402C14.2427 62.565 14.7082 61.7898 15.1736 61.0146C15.6033 60.2968 16.0401 59.5862 16.4912 58.8756C18.2456 56.0906 20.1504 53.3343 22.3702 50.7934C22.6781 50.4416 22.9932 50.0899 23.3083 49.7454H23.3154C29.4236 43.1777 37.8518 38.2609 51.5002 38.2609H108.5C128.02 38.2609 136.871 48.317 143.516 58.8756C144.697 60.749 145.807 62.6439 146.896 64.4958C149.567 69.0466 152.116 73.3964 155.238 76.4541C155.861 77.0643 156.506 77.6241 157.179 78.1265C157.451 78.3275 157.723 78.5214 158.002 78.7008L159.219 79.4904Z" fill="white" /> 
 <path d="M143.516 58.8756H16.4912C18.2456 56.0906 20.1504 53.3343 22.3702 50.7934C22.6781 50.4416 22.9932 50.0899 23.3082 49.7454H23.3154C29.4235 43.1777 37.8518 38.2609 51.5002 38.2609H108.5C128.02 38.2609 136.871 48.317 143.516 58.8756Z" fill="#FCC421" /> 
 <path d="M67.8195 79.4904L36.971 100.105L23.3942 109.178L22.7426 109.616C20.7232 107.369 18.9688 104.95 17.3648 102.481C16.8636 101.706 16.3695 100.931 15.8897 100.155C15.8754 100.141 15.8682 100.127 15.8611 100.105C15.6248 99.7177 15.3885 99.33 15.1522 98.9495C14.8013 98.3681 14.4576 97.794 14.121 97.2197C13.7773 96.6455 13.4407 96.0713 13.1042 95.4971C12.5743 94.5855 12.0444 93.6882 11.5145 92.8054C10.9846 91.9153 10.4547 91.0468 9.91764 90.207C9.48083 89.5251 9.05119 88.8719 8.61439 88.2403C8.44969 87.9962 8.27782 87.7594 8.11313 87.5297C7.46866 86.6324 6.80987 85.7782 6.12244 84.9887V75.0043C6.98173 74.0137 7.80522 72.9227 8.60722 71.7671C10.1468 69.5347 11.6076 67.0512 13.1042 64.5031C13.3333 64.1155 13.5625 63.7279 13.7916 63.3403C14.2427 62.5651 14.7082 61.7899 15.1736 61.0147C15.6033 60.2969 16.0401 59.5863 16.4912 58.8757C18.2456 56.0907 20.1504 53.3344 22.3702 50.7934C22.6781 50.4417 22.9932 50.09 23.3083 49.7455H23.3154L23.9742 50.1905L36.971 58.8757L67.8195 79.4904Z" fill="#3C8D35" /> 
 <path d="M10.2399 71.767V87.5296H8.11313C7.46866 86.6323 6.80987 85.7781 6.12244 84.9886C4.85499 83.5243 3.49445 82.261 1.99785 81.292L0.00715683 80H0L1.99785 78.7008C3.49445 77.7318 4.84783 76.4685 6.12244 75.0042C6.98173 74.0136 7.80522 72.9226 8.60722 71.767H10.2399Z" fill="#3C8D35" /> 
 <path d="M18.5965 79.4904C18.5965 70.6616 24.7476 63.2757 32.9896 61.4022C31.6649 61.1008 30.29 60.9357 28.8793 60.9357C18.6538 60.9357 10.3688 69.2404 10.3688 79.4904C10.3688 89.7403 18.6538 98.0451 28.8793 98.0451C30.2972 98.0451 31.672 97.8801 32.9896 97.5786C24.7476 95.7052 18.5965 88.3191 18.5965 79.4904Z" fill="white" /> 
 <path d="M32.9968 62.7733L35.0161 68.982L29.7386 65.1491H36.2549L30.9774 68.982L33.0039 62.7733H32.9968Z" fill="white" /> 
 <path d="M32.9968 71.6307L35.0161 77.8395L29.7386 74.0065H36.2549L30.9774 77.8395L33.0039 71.6307H32.9968Z" fill="white" /> 
 <path d="M32.9968 80.481L35.0161 86.6898L29.7386 82.8569H36.2549L30.9774 86.6898L33.0039 80.481H32.9968Z" fill="white" /> 
 <path d="M32.9968 89.3384L35.0161 95.5472L29.7386 91.7143H36.2549L30.9774 95.5472L33.0039 89.3384H32.9968Z" fill="white" /> 
 <path d="M159.227 79.4904L158.009 78.7008C157.73 78.5214 157.458 78.3275 157.186 78.1265C156.513 77.6313 155.868 77.0714 155.245 76.4541C152.123 73.3964 149.574 69.0466 146.903 64.4958C145.815 62.6439 144.705 60.749 143.523 58.8756C136.878 48.317 128.027 38.2609 108.507 38.2609H51.5073C37.8589 38.2609 29.4307 43.1777 23.3226 49.7454C23.0004 50.09 22.6853 50.4416 22.3774 50.7934C20.1575 53.3343 18.2528 56.0906 16.4984 58.8756C16.0473 59.5862 15.6105 60.2968 15.1808 61.0146C14.7154 61.7898 14.2499 62.565 13.7988 63.3402C13.5696 63.7278 13.3405 64.1154 13.1113 64.503C11.6147 67.0511 10.154 69.5347 8.61439 71.767C7.81239 72.9226 6.9889 74.0137 6.12961 75.0042C4.85499 76.4685 3.5016 77.7318 2.005 78.7008L0.0143127 80L2.005 81.292C3.5016 82.261 4.86215 83.5243 6.12961 84.9886C6.81704 85.7782 7.47583 86.6324 8.1203 87.5296C8.285 87.7593 8.45685 87.9961 8.62155 88.2402C9.05835 88.8718 9.488 89.525 9.92481 90.1997C10.4619 91.0467 10.9918 91.9152 11.5217 92.8053C12.0516 93.6882 12.5815 94.5854 13.1113 95.497C13.4479 96.0712 13.7845 96.6455 14.1282 97.2197C14.4647 97.7939 14.8084 98.3681 15.1593 98.9495C15.3956 99.3299 15.6319 99.7176 15.8682 100.105C15.8754 100.127 15.8826 100.141 15.8969 100.155C16.3767 100.931 16.8707 101.706 17.372 102.481C18.976 104.95 20.7304 107.369 22.7497 109.616C23.2367 110.183 23.7594 110.735 24.3108 111.274C25.3061 112.286 26.3731 113.248 27.5188 114.152C27.9914 114.533 28.4783 114.899 28.9796 115.25C29.4808 115.609 29.9964 115.954 30.5263 116.284C30.9488 116.55 31.3784 116.808 31.8224 117.059C32.2592 117.31 32.7103 117.547 33.1758 117.784C38.0165 120.239 43.9671 121.739 51.5073 121.739H108.507C121.439 121.739 129.681 117.325 135.704 111.274C136.455 110.52 137.179 109.738 137.866 108.934C138.554 108.13 139.212 107.312 139.85 106.472C140.487 105.639 141.096 104.785 141.683 103.924C142.27 103.062 142.843 102.194 143.394 101.318C143.645 100.916 143.895 100.507 144.146 100.105C144.375 99.7319 144.604 99.3586 144.833 98.9782C145.535 97.8082 146.223 96.6454 146.903 95.4898C150.319 89.6757 153.541 84.1847 158.009 81.292L160 80L159.234 79.4904H159.227ZM157.58 80.646C152.961 83.632 149.696 89.202 146.23 95.1022C145.263 96.7531 144.275 98.4328 143.229 100.105C136.649 110.714 127.977 120.964 108.5 120.964H51.5002C37.7873 120.964 29.4379 115.882 23.3942 109.178C20.845 106.357 18.7111 103.249 16.7705 100.105C15.725 98.4328 14.7368 96.7531 13.7701 95.1022C12.2091 92.4392 10.6838 89.848 9.05835 87.5296C8.1203 86.1945 7.15359 84.9455 6.12244 83.8258C4.97672 82.584 3.75939 81.5073 2.42033 80.646L1.41783 80L2.42033 79.3468C3.75939 78.4855 4.97672 77.4088 6.12244 76.167C7.33261 74.8606 8.45685 73.3748 9.53812 71.767C10.9846 69.628 12.3595 67.288 13.7701 64.8906C14.9373 62.9096 16.126 60.8782 17.4006 58.8756C19.3269 55.8466 21.4465 52.875 23.9742 50.1904C29.9606 43.795 38.217 39.0289 51.5002 39.0289H108.5C127.354 39.0289 136.083 48.64 142.599 58.8756C143.874 60.8782 145.063 62.9096 146.23 64.8906C149.696 70.7908 152.961 76.3609 157.58 79.3468L157.802 79.4904L158.582 80L157.58 80.646Z" fill="white" /> 
 <path d="M51.5 39.2609H108.493C119.757 39.2609 127.316 42.6655 132.949 47.5255C138.626 52.4226 142.4 58.835 146.023 65.0079C147.726 67.909 149.412 70.7829 151.238 73.2921C153.065 75.8028 155.074 78.0073 157.452 79.546H157.453L158.156 80.0001L157.453 80.4552L157.452 80.4562C155.074 81.9949 153.066 84.1993 151.239 86.7101C149.414 89.2192 147.731 92.0923 146.031 94.9933C142.408 101.166 138.631 107.579 132.953 112.476C127.318 117.336 119.757 120.741 108.493 120.741H51.5C40.2363 120.741 32.6766 117.337 27.043 112.477C21.3663 107.579 17.592 101.166 13.9688 94.9933L12.6924 92.8302C11.4142 90.682 10.1234 88.5946 8.75391 86.712C6.92713 84.2009 4.91952 81.995 2.54102 80.4562H2.54199L1.83887 80.0001L2.54102 79.545C4.91929 78.0063 6.92697 75.8026 8.75391 73.2921C10.58 70.7828 12.2657 67.9091 13.9688 65.0079C17.5919 58.835 21.3664 52.4227 27.043 47.5255C32.6766 42.6654 40.2363 39.2609 51.5 39.2609Z" stroke="#F6F8F9" stroke-width="2" /> 
</svg>