<svg width="160" height="160" viewbox="0 0 160 160" fill="none" xmlns="http://www.w3.org/2000/svg"> 
 <path d="M160 80L157.995 81.2946C153.529 84.184 150.304 89.6767 146.894 95.4984C139.674 107.8 131.483 121.739 108.495 121.739H51.5045C28.5169 121.739 20.3335 107.8 13.1134 95.4984C9.69589 89.6839 6.47106 84.184 2.00481 81.2946L0.00714111 80L2.00481 78.7055C6.47106 75.8161 9.69589 70.3233 13.1134 64.5016C20.3335 52.2001 28.5169 38.2609 51.5045 38.2609H108.495C131.483 38.2609 139.666 52.2001 146.887 64.5016C150.304 70.3233 153.529 75.8161 157.995 78.7055L160 80Z" fill="#C0282E" /> 
 <path d="M99.8983 73.599H84.88L80.2354 59.2663L75.5908 73.599H60.5797L72.7227 82.446L68.0852 96.7643L80.2354 87.9172L92.3856 96.7643L87.7481 82.446L99.8983 73.599ZM80.2354 69.1503L81.6766 73.599H78.7943L80.2354 69.1503ZM69.9474 76.6528H74.6063L73.7144 79.3921L69.9474 76.6528ZM73.8785 88.7755L75.3197 84.3341L77.6456 86.0292L73.8785 88.7755ZM76.3043 81.2802L77.8026 76.6528H82.6683L84.1666 81.2802L80.2354 84.141L76.3043 81.2802ZM82.8253 86.0292L85.1583 84.3341L86.5995 88.7755L82.8253 86.0292ZM85.8718 76.6528H90.5235L86.7564 79.3921L85.8718 76.6528Z" fill="#006333" /> 
 <path d="M157.995 78.7055C153.529 75.8161 150.304 70.3233 146.887 64.5016C139.666 52.2001 131.483 38.2609 108.495 38.2609H51.5045C28.5169 38.2609 20.3335 52.2001 13.1134 64.5016C9.69589 70.3233 6.47106 75.8161 2.00481 78.7055L0.00714111 80L2.00481 81.2946C6.47106 84.184 9.69589 89.6839 13.1134 95.4984C20.3335 107.8 28.5169 121.739 51.5045 121.739H108.495C131.483 121.739 139.674 107.8 146.894 95.4984C150.304 89.6767 153.529 84.184 157.995 81.2946L160 80L157.995 78.7055ZM157.574 80.6509C152.958 83.6404 149.691 89.2046 146.23 95.105C139.11 107.228 131.048 120.967 108.495 120.967H51.5045C28.9521 120.967 20.89 107.228 13.7769 95.105C10.3095 89.2118 7.04183 83.6404 2.42576 80.6509L1.42691 80L2.42576 79.3563C7.04183 76.3668 10.3095 70.7954 13.7769 64.895C20.89 52.7723 28.9592 39.0333 51.5045 39.0333H108.495C131.048 39.0333 139.11 52.7723 146.23 64.895C149.691 70.7954 152.958 76.3668 157.574 79.3563L158.58 80L157.574 80.6509Z" fill="white" /> 
 <path d="M51.5 39.2609H108.493C119.757 39.2609 127.316 42.6655 132.949 47.5255C138.626 52.4226 142.4 58.835 146.023 65.0079C147.726 67.909 149.412 70.7829 151.238 73.2921C153.065 75.8028 155.074 78.0073 157.452 79.546H157.453L158.156 80.0001L157.453 80.4552L157.452 80.4562C155.074 81.9949 153.066 84.1993 151.239 86.7101C149.414 89.2192 147.731 92.0923 146.031 94.9933C142.408 101.166 138.631 107.579 132.953 112.476C127.318 117.336 119.757 120.741 108.493 120.741H51.5C40.2363 120.741 32.6766 117.337 27.043 112.477C21.3663 107.579 17.592 101.166 13.9688 94.9933L12.6924 92.8302C11.4142 90.682 10.1234 88.5946 8.75391 86.712C6.92713 84.2009 4.91952 81.995 2.54102 80.4562H2.54199L1.83887 80.0001L2.54102 79.545C4.91929 78.0063 6.92697 75.8026 8.75391 73.2921C10.58 70.7828 12.2657 67.9091 13.9688 65.0079C17.5919 58.835 21.3664 52.4227 27.043 47.5255C32.6766 42.6654 40.2363 39.2609 51.5 39.2609Z" stroke="#F6F8F9" stroke-width="2" /> 
</svg>