<svg width="160" height="160" viewbox="0 0 160 160" fill="none" xmlns="http://www.w3.org/2000/svg"> 
 <path d="M160 80L157.997 81.2998C157.753 81.4515 157.508 81.6176 157.277 81.7909C157.032 81.9642 156.802 82.1448 156.571 82.3325C156.11 82.708 155.663 83.1124 155.231 83.5456C155.102 83.6684 154.979 83.7912 154.857 83.9212C154.612 84.1739 154.374 84.4338 154.129 84.701C153.891 84.9682 153.654 85.2426 153.423 85.5243C152.897 86.1597 152.386 86.8386 151.882 87.5318C151.716 87.7629 151.55 88.0012 151.384 88.2395C151.168 88.5572 150.952 88.8822 150.729 89.2143C150.297 89.8643 149.872 90.5431 149.44 91.2291C148.59 92.6084 147.754 94.0455 146.897 95.4969C139.671 107.802 131.488 121.739 108.494 121.739H51.506C51.3043 121.739 51.1099 121.739 50.9154 121.732C28.368 121.501 20.2639 107.694 13.1107 95.5042C10.5534 91.1425 8.0969 86.9541 5.14341 83.9212C5.02095 83.7912 4.89847 83.6612 4.76881 83.5456C4.32938 83.1124 3.88277 82.708 3.42894 82.3325C3.19842 82.1448 2.96072 81.9642 2.73021 81.7909C2.48528 81.6176 2.24756 81.4515 2.00263 81.2998L0 80L2.00263 78.7074C6.46889 75.8117 9.69615 70.3234 13.1107 64.5031C20.2639 52.3135 28.368 38.4992 50.9154 38.2681C51.1099 38.2609 51.3043 38.2609 51.506 38.2609H108.494C131.488 38.2609 139.671 52.2052 146.889 64.5031C150.304 70.3234 153.531 75.8189 157.997 78.7074L160 80Z" fill="#D00A1E" /> 
 <path d="M104.763 38.2609V121.739H51.506C51.3043 121.739 51.1099 121.739 50.9154 121.732C28.368 121.501 20.2639 107.694 13.1107 95.5042C10.5534 91.1425 8.0969 86.9541 5.14341 83.9212C5.02095 83.7912 4.89847 83.6612 4.76881 83.5456C4.32938 83.1124 3.88277 82.708 3.42894 82.3325C3.19842 82.1448 2.96072 81.9642 2.73021 81.7909C2.48528 81.6176 2.24756 81.4515 2.00263 81.2998L0 80L2.00263 78.7074C6.46889 75.8117 9.69615 70.3234 13.1107 64.5031C20.2639 52.3135 28.368 38.4992 50.9154 38.2681C51.1099 38.2609 51.3043 38.2609 51.506 38.2609H104.763Z" fill="#FDD300" /> 
 <path d="M50.9154 38.2681V121.732C28.368 121.501 20.2639 107.694 13.1107 95.5041C10.5534 91.1425 8.0969 86.9541 5.14341 83.9211C5.02095 83.7911 4.89847 83.6612 4.76881 83.5456C3.89716 82.6863 2.98233 81.9281 2.00263 81.2998L0 80L2.00263 78.7074C6.46889 75.8116 9.69615 70.3234 13.1107 64.503C20.2639 52.3135 28.368 38.4991 50.9154 38.2681Z" fill="#00B731" /> 
 <path d="M157.997 78.7074C153.531 75.8189 150.304 70.3234 146.889 64.5031C139.671 52.2052 131.488 38.2609 108.494 38.2609H51.506C51.3043 38.2609 51.1099 38.2609 50.9154 38.2681C28.368 38.4992 20.2639 52.3135 13.1107 64.5031C9.69615 70.3234 6.46889 75.8117 2.00263 78.7074L0 80L2.00263 81.2998C2.24756 81.4515 2.48528 81.6176 2.73021 81.7909C2.96072 81.9642 3.19842 82.1448 3.42894 82.3325C3.88277 82.708 4.32938 83.1124 4.76881 83.5456C4.89847 83.6612 5.02095 83.7912 5.14341 83.9212C8.0969 86.9541 10.5534 91.1425 13.1107 95.5042C20.2639 107.694 28.368 121.501 50.9154 121.732C51.1099 121.739 51.3043 121.739 51.506 121.739H108.494C131.488 121.739 139.671 107.802 146.897 95.4969C147.754 94.0455 148.59 92.6084 149.44 91.2291C149.872 90.5431 150.297 89.8643 150.729 89.2143C150.952 88.8822 151.168 88.5572 151.384 88.2395C151.55 88.0012 151.716 87.7629 151.882 87.5318C152.386 86.8386 152.897 86.1597 153.423 85.5243C153.654 85.2426 153.891 84.9682 154.129 84.701C154.374 84.4338 154.612 84.1739 154.857 83.9212C154.979 83.7912 155.102 83.6684 155.231 83.5456C155.663 83.1124 156.11 82.708 156.571 82.3325C156.802 82.1448 157.032 81.9642 157.277 81.7909C157.508 81.6176 157.753 81.4515 157.997 81.2998L160 80L157.997 78.7074ZM146.227 95.107C139.117 107.232 131.049 120.974 108.494 120.974H51.506C51.3115 120.974 51.1099 120.974 50.9154 120.966C28.8074 120.735 20.8257 107.123 13.7734 95.107C10.3084 89.2071 7.03794 83.6395 2.42041 80.6499L1.4191 80L2.42041 79.3501C7.03794 76.3605 10.3084 70.7928 13.7734 64.893C20.8257 52.8768 28.8074 39.2718 50.9154 39.0407C51.1099 39.0335 51.3115 39.0335 51.506 39.0335H108.494C131.049 39.0335 139.109 52.7685 146.227 64.893C149.692 70.7928 152.962 76.3677 157.58 79.3501L158.581 80L157.58 80.6499C152.962 83.6395 149.692 89.2071 146.227 95.107Z" fill="white" /> 
 <path d="M51.5 39.2609H108.493C119.757 39.2609 127.316 42.6655 132.949 47.5255C138.626 52.4226 142.4 58.835 146.023 65.0079C147.726 67.909 149.412 70.7829 151.238 73.2921C153.065 75.8028 155.074 78.0073 157.452 79.546H157.453L158.156 80.0001L157.453 80.4552L157.452 80.4562C155.074 81.9949 153.066 84.1993 151.239 86.7101C149.414 89.2192 147.731 92.0923 146.031 94.9933C142.408 101.166 138.631 107.579 132.953 112.476C127.318 117.336 119.757 120.741 108.493 120.741H51.5C40.2363 120.741 32.6766 117.337 27.043 112.477C21.3663 107.579 17.592 101.166 13.9688 94.9933L12.6924 92.8302C11.4142 90.682 10.1234 88.5946 8.75391 86.712C6.92713 84.2009 4.91952 81.995 2.54102 80.4562H2.54199L1.83887 80.0001L2.54102 79.545C4.91929 78.0063 6.92697 75.8026 8.75391 73.2921C10.58 70.7828 12.2657 67.9091 13.9688 65.0079C17.5919 58.835 21.3664 52.4227 27.043 47.5255C32.6766 42.6654 40.2363 39.2609 51.5 39.2609Z" stroke="#F6F8F9" stroke-width="2" /> 
</svg>