<svg width="160" height="160" viewbox="0 0 160 160" fill="none" xmlns="http://www.w3.org/2000/svg"> 
 <path d="M160 80.0001L159.935 80.0433L157.997 81.2998C157.752 81.4515 157.507 81.6176 157.277 81.7909C157.032 81.9642 156.801 82.1448 156.571 82.3325C156.11 82.708 155.663 83.1124 155.231 83.5457C152.112 86.6075 149.561 90.9548 146.896 95.497C144.641 99.3459 142.285 103.346 139.418 107.037C138.561 108.141 137.653 109.225 136.688 110.257C136.436 110.532 136.177 110.799 135.91 111.066C135.838 111.145 135.773 111.211 135.701 111.283C130.348 116.655 123.238 120.735 112.641 121.58H47.3588C27.4903 120.006 19.8685 107.037 13.104 95.5042C11.0724 92.0452 9.113 88.7017 6.923 85.9504C6.69247 85.6616 6.46197 85.3799 6.22423 85.1055C5.86404 84.6939 5.50383 84.2967 5.13643 83.9212C5.01396 83.7912 4.89148 83.6684 4.76181 83.5457C4.63934 83.4229 4.50966 83.3074 4.38719 83.1846C4.19268 83.0113 4.00534 82.838 3.81084 82.6647C3.22732 82.1664 2.62226 81.7042 1.99551 81.2998L0 80.0001L1.99551 78.7074C3.52996 77.7109 4.92032 76.411 6.22423 74.8945C6.46197 74.6201 6.69247 74.3313 6.923 74.0425C9.113 71.2984 11.0797 67.9621 13.104 64.5031C19.8973 52.9345 27.5407 39.9001 47.5821 38.4053H112.418C132.452 39.9001 140.095 52.9345 146.896 64.5031C147.616 65.7235 148.322 66.9367 149.036 68.1065C151.723 72.5187 154.475 76.4255 157.997 78.7074L159.935 79.9567L160 80.0001Z" fill="#0F8A00" /> 
 <path d="M159.935 79.9566V80.0433L157.997 81.2998C157.752 81.4514 157.507 81.6176 157.277 81.7909C157.032 81.9642 156.801 82.1447 156.571 82.3325C156.11 82.708 155.663 83.1123 155.231 83.5456C152.112 86.6074 149.561 90.9547 146.896 95.4969C144.641 99.3458 142.285 103.346 139.418 107.037C138.561 108.141 137.653 109.225 136.688 110.257C136.436 110.532 136.177 110.799 135.91 111.066V68.1064H149.036C151.723 72.5187 154.475 76.4254 157.997 78.7074L159.935 79.9566Z" fill="#EF7E04" /> 
 <path d="M135.91 68.1064V111.073C135.838 111.145 135.773 111.21 135.701 111.283C130.348 116.655 123.238 120.735 112.641 121.58H111.899V68.1064H135.91Z" fill="#000100" /> 
 <path d="M111.899 68.1064H87.8956V121.58H111.899V68.1064Z" fill="#DF2214" /> 
 <path d="M120.638 48.4069C120.638 48.4069 125.738 46.4065 126.228 45.9949C126.451 46.2404 124.182 48.7606 119.78 49.6922C123.779 48.8256 127.193 46.1032 127.885 46.1826C128.086 46.226 128.043 48.8474 118.88 51.1148C125.212 49.5839 128.893 46.782 128.85 47.0925C128.893 47.1575 128.223 49.3022 122.676 50.9704C124.225 50.6382 128.425 48.2841 128.382 48.739C128.519 48.9268 124.319 53.8806 116.726 52.2702C122.792 53.7145 126.718 50.2266 127.28 50.2916C127.395 50.3133 126.156 53.3462 118.52 53.534C122.179 53.1801 121.127 53.5123 121.127 53.5123C121.127 53.5123 118.973 55.0576 116.366 54.0105C118.412 54.5232 118.635 54.5449 118.678 54.711C118.541 54.9205 116.863 55.2237 115.242 54.4222C116.546 54.9204 117.713 54.9998 117.734 55.1876C117.713 55.2526 116.884 55.6859 116.142 55.3753C115.4 55.0648 108.578 51.2086 108.578 51.2086L120.213 48.2768L120.638 48.4212V48.4069Z" fill="#EF7E04" /> 
 <path d="M128.901 47.2009C128.922 47.1359 128.922 47.0998 128.922 47.0781C128.922 47.0492 128.908 47.0276 128.886 47.0059C128.814 46.9554 128.713 47.0059 128.043 47.3815C127.647 47.5981 127.107 47.9014 126.422 48.248C127.986 47.1576 128 46.356 128 46.2983C128 46.1466 127.928 46.1177 127.899 46.1105C127.618 46.0744 127.006 46.421 126.077 46.941C125.666 47.172 125.198 47.432 124.679 47.7064C125.688 47.0059 126.213 46.356 126.293 46.1177C126.314 46.0455 126.314 45.9877 126.278 45.9444C126.249 45.9155 126.214 45.9155 126.185 45.9372C125.767 46.2838 122.014 47.7931 120.911 48.2264C120.825 48.2625 120.753 48.2841 120.702 48.3058C120.674 48.3202 120.645 48.3274 120.63 48.3346L120.573 48.313L120.227 48.1975C120.227 48.1975 120.205 48.1902 120.191 48.1975L110.365 50.6743H110.343L110.293 50.696H110.271L110.221 50.7105H110.199L110.127 50.7321L110.055 50.7538L109.695 50.8476L108.564 51.1293C108.564 51.1293 108.513 51.1582 108.513 51.1799C108.506 51.2088 108.52 51.2376 108.542 51.2521C108.636 51.3098 109.493 51.7936 110.603 52.4147C110.711 52.4725 110.819 52.5374 110.934 52.5952C110.955 52.6097 110.984 52.6241 111.006 52.6386C111.028 52.653 111.049 52.6602 111.071 52.6746C111.489 52.9057 111.928 53.1513 112.367 53.404C112.389 53.4112 112.411 53.4257 112.432 53.4329C112.454 53.4474 112.476 53.4618 112.497 53.4762C113.081 53.7939 113.65 54.1117 114.168 54.3861C114.168 54.3933 114.183 54.4005 114.19 54.4078C114.32 54.48 114.449 54.545 114.572 54.6172C114.665 54.6678 114.759 54.7183 114.846 54.7616C115.076 54.8844 115.278 54.9927 115.458 55.0938C115.631 55.1804 115.782 55.2599 115.897 55.3177C115.905 55.3249 115.912 55.3249 115.919 55.3321C116.005 55.3754 116.077 55.4043 116.121 55.426C116.15 55.4404 116.178 55.4476 116.207 55.4548C116.38 55.5126 116.56 55.5415 116.719 55.5415C117.108 55.5415 117.439 55.4115 117.561 55.3609C117.706 55.296 117.785 55.2454 117.799 55.2021C117.806 55.1877 117.806 55.1805 117.806 55.166C117.799 55.1011 117.727 55.0504 117.598 54.9999C118.21 54.9927 118.656 54.8627 118.736 54.7399C118.75 54.7255 118.75 54.7038 118.743 54.6822C118.714 54.5811 118.657 54.5233 118.332 54.4295C119.903 54.3933 121.048 53.6423 121.156 53.5628C121.358 53.4979 121.344 53.4257 121.336 53.404C121.336 53.3896 121.336 53.3824 121.322 53.3679C126.019 52.6819 127.323 50.7177 127.352 50.3133C127.359 50.2483 127.323 50.2266 127.287 50.2194C127.208 50.2122 127.092 50.2483 126.919 50.3349C127.69 49.7572 128.187 49.2157 128.382 48.9124C128.439 48.8185 128.461 48.7679 128.447 48.7246C128.447 48.6885 128.432 48.6596 128.403 48.638C128.295 48.5585 127.971 48.6597 127.301 48.9485C128.569 48.0531 128.857 47.3309 128.901 47.2009ZM128.317 48.7535C128.281 48.8907 127.683 49.6345 126.516 50.4433C126.105 50.7321 125.572 51.0571 124.931 51.3604C124.268 51.6565 123.483 51.9598 122.576 52.1836C120.976 52.5591 119.024 52.6819 116.74 52.1981C116.704 52.1909 116.668 52.2125 116.661 52.2486C116.654 52.2847 116.675 52.3208 116.711 52.328C118.743 52.8119 120.544 52.7397 122.057 52.4364C123.368 52.1908 124.485 51.7648 125.407 51.281C125.839 51.0716 126.192 50.8766 126.48 50.7177C126.797 50.5444 127.056 50.4 127.193 50.3639C127.02 50.7321 125.839 52.7035 120.861 53.2957H120.854C120.472 53.2957 119.78 53.3391 118.52 53.4618C118.498 53.4618 118.476 53.4762 118.476 53.4906C118.462 53.4979 118.455 53.5123 118.455 53.5268C118.462 53.5485 118.469 53.5629 118.484 53.5701C118.491 53.5773 118.498 53.5845 118.505 53.5845C118.512 53.5918 118.52 53.5918 118.527 53.5918H118.584C119.406 53.5701 120.155 53.5123 120.839 53.4329C120.962 53.4257 121.048 53.4329 121.106 53.4401C121.106 53.4401 121.099 53.4474 121.091 53.4474C121.07 53.4618 119.643 54.4656 117.734 54.2706C117.619 54.2417 117.489 54.2128 117.345 54.1767C117.086 54.1117 116.769 54.0322 116.387 53.9384C116.351 53.9239 116.315 53.9456 116.308 53.9817C116.294 54.0106 116.308 54.0467 116.344 54.0612C116.812 54.2489 117.273 54.3572 117.706 54.4005C118.325 54.5594 118.541 54.6172 118.599 54.6894C118.455 54.7977 117.785 54.9277 116.935 54.8338C116.575 54.7544 116.121 54.6388 115.631 54.4655C115.631 54.4655 115.624 54.4727 115.616 54.4655C115.537 54.4511 115.472 54.4222 115.393 54.3933C115.357 54.3789 115.314 54.3645 115.278 54.35C115.249 54.3356 115.22 54.3428 115.206 54.3645C115.199 54.3717 115.191 54.3789 115.191 54.3861C115.184 54.4005 115.184 54.415 115.184 54.4295C115.191 54.4439 115.206 54.4655 115.22 54.4727C115.804 54.7616 116.402 54.9133 116.942 54.9711C116.956 54.9711 116.971 54.9783 116.992 54.9783C117.273 55.0505 117.569 55.1155 117.655 55.166C117.482 55.2744 116.791 55.556 116.178 55.3032C116.078 55.2599 115.854 55.1516 115.552 54.9927C115.544 54.9855 115.537 54.9783 115.53 54.9783C115.415 54.9133 115.285 54.8483 115.141 54.7688C115.033 54.7111 114.918 54.6461 114.795 54.5883C114.629 54.4944 114.457 54.4005 114.277 54.2994C114.277 54.2922 114.262 54.2922 114.255 54.285C114.161 54.2344 114.068 54.1839 113.974 54.1334C113.909 54.0972 113.837 54.0611 113.772 54.025C113.405 53.8156 113.009 53.599 112.62 53.3823C112.598 53.3679 112.576 53.3607 112.555 53.3463C112.533 53.339 112.512 53.3246 112.49 53.3101C112 53.0357 111.51 52.7613 111.049 52.5013C111.02 52.4869 110.999 52.4725 110.977 52.4581C110.948 52.4508 110.927 52.4364 110.905 52.4219C110.754 52.3353 110.617 52.2559 110.48 52.1836H110.473C109.68 51.7287 109.039 51.3748 108.765 51.2159L109.767 50.9632L110.163 50.8621L110.235 50.8405H110.242L110.3 50.826H110.322L110.379 50.8116H110.394L110.444 50.7899H110.466L120.213 48.3274L120.429 48.3997L120.515 48.4357L120.594 48.4646H120.623C120.623 48.4646 120.652 48.4719 120.666 48.4646C120.861 48.3924 125.255 46.6593 126.156 46.125C126.149 46.1394 126.134 46.161 126.12 46.1899C125.839 46.681 124.787 47.663 123.058 48.5079C122.042 48.9557 120.933 49.3673 119.773 49.62C119.737 49.6273 119.715 49.6634 119.723 49.6995C119.73 49.7356 119.766 49.7573 119.802 49.7501C121.135 49.4684 122.251 49.0568 123.166 48.6018C124.326 48.0819 125.349 47.5114 126.149 47.0564C126.963 46.6015 127.604 46.2405 127.856 46.2405H127.87C127.87 46.2405 127.892 46.3777 127.82 46.5727C127.683 46.9337 127.128 47.8725 124.902 48.9846C123.613 49.5623 122.021 50.1761 120.177 50.7032C119.766 50.8188 119.334 50.9343 118.873 51.0426C118.837 51.0498 118.815 51.0859 118.829 51.122C118.837 51.1509 118.865 51.1726 118.894 51.1726H118.909C119.341 51.0715 119.766 50.956 120.177 50.8405C122.331 50.2483 123.894 49.6417 125.032 49.0712C126.43 48.4357 127.474 47.8581 128.115 47.497C128.403 47.3382 128.663 47.1937 128.778 47.1432C128.699 47.367 128.252 48.2913 126.444 49.3384C126.3 49.4034 126.156 49.4756 126.005 49.5478C125.205 49.9089 124.34 50.3133 123.627 50.5877C123.325 50.696 123.008 50.7971 122.669 50.8982C122.633 50.9127 122.611 50.9488 122.619 50.9849C122.633 51.0138 122.662 51.0354 122.698 51.0282C122.957 50.9776 123.289 50.8621 123.663 50.7177C124.881 50.2989 125.824 49.8583 126.545 49.4395C127.373 49.064 128.166 48.7102 128.324 48.7463L128.317 48.7535Z" fill="#000100" /> 
 <path d="M106.964 58.8487C105.942 58.8487 105.913 59.6864 105.913 59.6864C105.913 59.6864 105.826 59.7441 105.884 60.1558C106.05 59.8813 106.136 59.7947 106.136 59.7947C106.251 59.8091 106.719 59.9392 107.462 59.4048C106.784 60.0547 107.188 60.293 107.188 60.293C107.188 60.293 107.029 60.7985 107.541 60.9068C107.382 60.6974 107.476 60.5168 107.476 60.5168C107.476 60.5168 108.196 60.4446 108.153 59.6358C108.182 60.3724 108.614 60.553 108.614 60.553C108.614 60.553 108.614 60.9573 109.082 60.9935C108.83 60.784 108.888 60.4663 108.888 60.4663C108.888 60.4663 109.5 60.0619 108.982 59.3687C109.291 59.2026 109.543 58.7476 109.543 58.7476C109.543 58.7476 109.118 58.5815 108.924 58.4443C108.83 58.2638 108.917 57.2745 108.917 57.2745L108.665 55.9891L107.944 57.9894C107.973 57.7077 107.995 58.8487 106.972 58.8487H106.964Z" fill="#EF7E04" /> 
 <path d="M108.974 58.4011C108.931 58.2711 108.938 57.8017 108.967 57.4478C108.946 57.4262 108.924 57.3973 108.902 57.3684C108.902 57.3034 108.902 57.2673 108.902 57.2673C108.873 57.224 108.845 57.1807 108.816 57.1446L108.837 57.2745V57.289C108.823 57.4984 108.758 58.2928 108.859 58.4733C108.859 58.4805 108.866 58.4878 108.874 58.495C109.003 58.5816 109.212 58.6827 109.356 58.7477C109.378 58.726 109.399 58.7044 109.428 58.6972C109.45 58.6755 109.471 58.661 109.493 58.6538C109.371 58.6033 109.111 58.495 108.967 58.4011H108.974ZM108.974 58.4011C108.931 58.2711 108.938 57.8017 108.967 57.4478C108.946 57.4262 108.924 57.3973 108.902 57.3684C108.902 57.3034 108.902 57.2673 108.902 57.2673C108.873 57.224 108.845 57.1807 108.816 57.1446L108.837 57.2745V57.289C108.823 57.4984 108.758 58.2928 108.859 58.4733C108.859 58.4805 108.866 58.4878 108.874 58.495C109.003 58.5816 109.212 58.6827 109.356 58.7477C109.378 58.726 109.399 58.7044 109.428 58.6972C109.45 58.6755 109.471 58.661 109.493 58.6538C109.371 58.6033 109.111 58.495 108.967 58.4011H108.974ZM109.601 58.7188C109.601 58.7188 109.594 58.6972 109.579 58.69C109.572 58.69 109.572 58.6827 109.565 58.6827C109.565 58.6827 109.543 58.6755 109.5 58.6538C109.378 58.6033 109.118 58.495 108.974 58.4011C108.931 58.2711 108.938 57.8017 108.967 57.4478C108.967 57.4117 108.974 57.3828 108.974 57.354C108.974 57.3251 108.982 57.3034 108.982 57.2745V57.2529L108.722 55.9675C108.722 55.9386 108.693 55.9169 108.665 55.9169C108.629 55.9097 108.607 55.9314 108.6 55.9603L107.915 57.8523C107.915 57.8523 107.915 57.8595 107.908 57.8595V57.8883C107.908 57.8883 107.872 57.9389 107.872 57.9606V57.9967C107.872 57.9967 107.872 58.0256 107.858 58.0473C107.836 58.17 107.771 58.3722 107.613 58.531C107.447 58.6971 107.231 58.7838 106.964 58.7838C105.985 58.7838 105.862 59.5132 105.848 59.6576C105.812 59.7081 105.769 59.8381 105.819 60.1631C105.819 60.1847 105.841 60.2137 105.869 60.2137C105.891 60.2209 105.927 60.2064 105.941 60.1847C106.05 59.997 106.129 59.9031 106.158 59.8598C106.294 59.8815 106.633 59.932 107.13 59.6793C107.029 59.8309 106.986 59.9681 107.001 60.0909C107.015 60.2064 107.072 60.2787 107.109 60.3148C107.094 60.3942 107.073 60.5747 107.166 60.7336C107.238 60.8563 107.361 60.9285 107.526 60.9646C107.555 60.9718 107.584 60.9647 107.598 60.9358C107.613 60.9141 107.613 60.8853 107.598 60.8636C107.498 60.7336 107.512 60.6253 107.526 60.5747C107.649 60.5458 108.016 60.4447 108.16 60.0692C108.268 60.4014 108.47 60.5458 108.549 60.5892C108.564 60.7047 108.65 61.0224 109.075 61.0513H109.082C109.082 61.0513 109.133 61.0369 109.147 61.0152C109.154 60.9863 109.147 60.9574 109.126 60.9358C108.938 60.7841 108.938 60.5747 108.946 60.4953C109.018 60.4447 109.198 60.2786 109.241 60.0187C109.248 59.997 109.248 59.9754 109.248 59.9537C109.263 59.8237 109.234 59.6937 109.176 59.5637C109.147 59.5059 109.118 59.441 109.075 59.3832C109.104 59.3615 109.133 59.3471 109.162 59.3182C109.176 59.3038 109.198 59.2893 109.219 59.2676C109.241 59.2532 109.255 59.2315 109.277 59.2099C109.464 59.0221 109.587 58.7911 109.601 58.7766C109.601 58.7694 109.608 58.7622 109.608 58.7477C109.608 58.7477 109.601 58.7332 109.601 58.7188ZM109.227 59.0726C109.227 59.0726 109.183 59.1232 109.154 59.1521C109.09 59.2098 109.018 59.2677 108.946 59.3038C108.931 59.3182 108.917 59.3326 108.917 59.347C108.909 59.3687 108.917 59.3904 108.924 59.4049C109.082 59.6143 109.14 59.8092 109.111 59.997C109.068 60.2569 108.852 60.4014 108.845 60.4086C108.83 60.4159 108.823 60.4303 108.816 60.4519C108.816 60.4591 108.78 60.6758 108.902 60.878C108.686 60.7769 108.679 60.5602 108.679 60.5458C108.679 60.5241 108.665 60.4953 108.636 60.4881C108.621 60.4808 108.254 60.3147 108.218 59.6576V59.6287C108.218 59.5926 108.189 59.5637 108.153 59.5637C108.11 59.5709 108.088 59.5998 108.088 59.6359V59.6648C108.11 60.3725 107.498 60.4447 107.469 60.4447C107.447 60.4519 107.426 60.4592 107.418 60.4808C107.411 60.4881 107.353 60.618 107.404 60.7841C107.353 60.7552 107.31 60.7119 107.281 60.6614C107.188 60.5097 107.253 60.3075 107.253 60.3075C107.26 60.2786 107.245 60.2498 107.224 60.2281C107.217 60.2281 107.145 60.1847 107.137 60.0764C107.123 59.9609 107.181 59.7587 107.505 59.4482C107.526 59.4265 107.534 59.3832 107.505 59.3543C107.483 59.3326 107.44 59.3254 107.411 59.347C106.741 59.8309 106.309 59.7515 106.165 59.7298H106.136C106.136 59.7298 106.093 59.7226 106.078 59.7443C106.078 59.7443 106.028 59.8021 105.92 59.9537C105.92 59.7876 105.941 59.737 105.941 59.737C105.956 59.7298 105.97 59.7082 105.97 59.6865C105.97 59.6576 106.014 58.9138 106.957 58.9138C107.771 58.9138 107.98 58.2134 108.002 57.9751L108.016 57.9317L108.074 57.7801L108.16 57.5489L108.636 56.2347L108.78 56.9568L108.809 57.1301C108.809 57.1301 108.809 57.1374 108.809 57.1446L108.83 57.2745V57.289C108.816 57.4984 108.751 58.2928 108.852 58.4733C108.852 58.4805 108.859 58.4878 108.866 58.495C108.996 58.5816 109.205 58.6827 109.349 58.7477C109.371 58.7549 109.399 58.7622 109.414 58.7694C109.414 58.7694 109.419 58.7718 109.428 58.7766C109.385 58.8488 109.313 58.9571 109.219 59.0654H109.212L109.227 59.0726ZM109.565 58.6827C109.565 58.6827 109.543 58.6755 109.5 58.6538C109.378 58.6033 109.118 58.495 108.974 58.4011C108.931 58.2711 108.938 57.8017 108.967 57.4478C108.946 57.4262 108.924 57.3973 108.902 57.3684C108.902 57.3034 108.902 57.2673 108.902 57.2673C108.873 57.224 108.845 57.1807 108.816 57.1446L108.837 57.2745V57.289C108.823 57.4984 108.758 58.2928 108.859 58.4733C108.859 58.4805 108.866 58.4878 108.874 58.495C109.003 58.5816 109.212 58.6827 109.356 58.7477C109.378 58.7549 109.407 58.7622 109.421 58.7694C109.443 58.755 109.471 58.7405 109.493 58.726C109.522 58.7116 109.543 58.6972 109.572 58.69C109.565 58.69 109.565 58.6827 109.558 58.6827H109.565Z" fill="#000100" /> 
 <path d="M112.014 55.9605C112.014 55.9605 112.778 56.7476 113.498 56.7043C113.765 56.4949 112.937 56.0471 112.937 55.9388C113.232 56.1843 114.464 57.1592 115.249 56.8053C115.566 56.3937 114.687 56.4515 113.722 55.3395C114.392 55.7511 116.077 56.6609 116.863 56.3071C117.201 55.9749 115.112 54.9423 114.413 54.1407L112.62 53.2958L110.17 55.13L112.014 55.9533V55.9605Z" fill="#EF7E04" /> 
 <path d="M113.707 53.7362L113.318 53.5557C113.441 53.6424 113.549 53.7146 113.635 53.7724L113.304 53.6208C113.426 53.7074 113.542 53.7796 113.628 53.8373C113.628 53.8446 113.628 53.8446 113.628 53.8518L113.736 53.9024H113.743L113.887 53.9746L114.204 54.119C114.204 54.119 114.219 54.0829 114.233 54.0685H114.24L114.248 54.0612C114.269 54.054 114.291 54.054 114.312 54.0685L114.334 54.0396L113.7 53.7362H113.707ZM112.101 53.6857L112.058 53.7219C112.058 53.7219 112.086 53.7579 112.101 53.7724L112.144 53.7362C112.144 53.7362 112.108 53.7002 112.101 53.6857ZM111.236 54.3357L111.222 54.3501C111.222 54.3501 111.251 54.3862 111.258 54.4006L111.287 54.3789C111.287 54.3789 111.251 54.3573 111.236 54.3357ZM113.707 53.7362L113.318 53.5557C113.441 53.6424 113.549 53.7146 113.635 53.7724L113.304 53.6208C113.426 53.7074 113.542 53.7796 113.628 53.8373C113.628 53.8446 113.628 53.8446 113.628 53.8518L113.736 53.9024H113.743L113.887 53.9746L114.204 54.119C114.204 54.119 114.219 54.0829 114.233 54.0685H114.24L114.248 54.0612C114.269 54.054 114.291 54.054 114.312 54.0685L114.334 54.0396L113.7 53.7362H113.707ZM112.058 53.7219C112.058 53.7219 112.086 53.7579 112.101 53.7724L112.144 53.7362C112.144 53.7362 112.108 53.7002 112.101 53.6857L112.058 53.7219ZM111.222 54.3501C111.222 54.3501 111.251 54.3862 111.258 54.4006L111.287 54.3789C111.287 54.3789 111.251 54.3573 111.236 54.3357L111.222 54.3501ZM116.207 55.4549C116.142 55.3971 116.07 55.3538 115.991 55.2961H115.984C115.984 55.2961 115.977 55.2888 115.969 55.2816C115.919 55.2527 115.869 55.2166 115.818 55.1805C115.732 55.1155 115.638 55.0506 115.544 54.9928C115.537 54.9856 115.53 54.9784 115.523 54.9784C115.235 54.7689 114.946 54.5523 114.716 54.3501C114.687 54.314 114.658 54.2924 114.637 54.2635C114.601 54.2274 114.565 54.1912 114.543 54.1624C114.514 54.1407 114.5 54.119 114.478 54.0973C114.471 54.0901 114.464 54.0902 114.457 54.0829L114.356 54.0396L113.722 53.7362L113.333 53.5557H113.325C113.325 53.5557 113.318 53.5486 113.318 53.5413C113.311 53.5413 113.304 53.5413 113.297 53.5341L113.016 53.4041L112.663 53.238C112.663 53.238 112.612 53.2308 112.591 53.2452L112.497 53.3102L112.447 53.3536L112.382 53.4041L112.115 53.5991L112.065 53.6352L112.022 53.6713L111.971 53.7146L111.251 54.2562L111.193 54.2923L111.143 54.3357L110.149 55.0795C110.149 55.0795 110.12 55.1156 110.12 55.1444C110.12 55.1661 110.134 55.1877 110.156 55.195L111.971 56.011H111.986C111.986 56.011 112.043 56.0687 112.086 56.1048C112.086 56.1048 112.086 56.1121 112.094 56.1121C112.13 56.1482 112.173 56.1843 112.216 56.2204C112.519 56.4732 113.023 56.7981 113.513 56.7692C113.527 56.7692 113.542 56.762 113.549 56.7548C113.614 56.7042 113.628 56.6465 113.628 56.6032C113.628 56.5671 113.621 56.5309 113.599 56.4948C113.981 56.7259 114.457 56.9498 114.882 56.9498C115.026 56.9498 115.163 56.9281 115.285 56.8703C115.299 56.8631 115.307 56.8559 115.314 56.8487C115.379 56.762 115.4 56.6898 115.386 56.6176C115.364 56.4876 115.213 56.4009 114.99 56.2709C114.766 56.1409 114.457 55.9532 114.111 55.6354C114.838 56.0398 116.2 56.6898 116.906 56.372C116.913 56.372 116.92 56.3648 116.927 56.3576C116.963 56.3215 116.985 56.271 116.978 56.2132C116.964 56.0254 116.69 55.7871 116.221 55.4549H116.207ZM116.827 56.2566C115.991 56.6104 114.118 55.5127 113.751 55.2816C113.729 55.2672 113.693 55.2744 113.671 55.2961C113.65 55.3249 113.65 55.3611 113.671 55.3827C114.147 55.9388 114.608 56.206 114.91 56.3865C115.091 56.4876 115.227 56.5742 115.242 56.6392C115.249 56.6681 115.235 56.7042 115.206 56.7548C114.413 57.0797 113.124 56.011 112.98 55.8883C112.965 55.881 112.951 55.8738 112.937 55.8738C112.922 55.8738 112.915 55.8738 112.908 55.881C112.879 55.8883 112.864 55.9171 112.864 55.9388C112.864 56.0038 112.929 56.0615 113.095 56.1915C113.239 56.307 113.484 56.4948 113.484 56.6032C113.484 56.6176 113.477 56.6248 113.47 56.6392H113.441C112.828 56.6392 112.187 56.0398 112.065 55.9171L112.05 55.9026L111.993 55.8738H111.986L111.906 55.8377L110.307 55.1228L111.215 54.444L111.265 54.4006L111.294 54.3789L111.352 54.3357L112.058 53.8085L112.108 53.7724L112.151 53.7362L112.202 53.7002L112.504 53.4763L112.569 53.4258L112.62 53.3824H112.634L113.642 53.8518L113.751 53.9024H113.758L113.902 53.9746L114.219 54.119L114.385 54.1984C114.385 54.1984 114.435 54.2562 114.464 54.2851C114.557 54.3862 114.673 54.4873 114.795 54.5884C114.882 54.6534 114.968 54.7256 115.062 54.7978C115.062 54.7978 115.066 54.8002 115.076 54.8051C115.076 54.8051 115.076 54.8123 115.091 54.8123C115.206 54.9134 115.343 55 115.465 55.0938C115.559 55.1588 115.652 55.2238 115.746 55.2888C116.279 55.6571 116.827 56.0399 116.841 56.2204C116.841 56.2349 116.841 56.2493 116.841 56.2566H116.827ZM111.236 54.3357L111.222 54.3501C111.222 54.3501 111.251 54.3862 111.258 54.4006L111.287 54.3789C111.287 54.3789 111.251 54.3573 111.236 54.3357ZM112.101 53.6857L112.058 53.7219C112.058 53.7219 112.086 53.7579 112.101 53.7724L112.144 53.7362C112.144 53.7362 112.108 53.7002 112.101 53.6857ZM113.707 53.7362L113.318 53.5557C113.441 53.6424 113.549 53.7146 113.635 53.7724L113.304 53.6208C113.426 53.7074 113.542 53.7796 113.628 53.8373C113.628 53.8446 113.628 53.8446 113.628 53.8518L113.736 53.9024H113.743L113.887 53.9746L114.204 54.119C114.204 54.119 114.219 54.0829 114.233 54.0685H114.24L114.248 54.0612C114.269 54.054 114.291 54.054 114.312 54.0685L114.334 54.0396L113.7 53.7362H113.707Z" fill="#000100" /> 
 <path d="M109.248 49.685C109.248 49.685 110.076 49.2301 113.405 49.4612C113.765 49.5045 115.674 48.8619 116.279 48.6741C117.245 48.508 120.321 47.887 121.149 47.3093C121.733 47.2443 120.99 48.2986 120.248 48.5513C119.463 48.8835 116.611 49.7934 115.602 49.6634C116.812 49.6851 116.142 50.5949 114.118 50.1617C115.083 50.6599 114.723 50.7394 114.723 50.7394C114.723 50.7394 113.016 50.8188 112.569 50.4722C113.715 50.8622 113.246 51.0066 113.246 51.0066C113.246 51.0066 112.079 51.1076 111.539 50.8838C112.367 51.1076 111.942 51.2521 111.942 51.2521C111.942 51.2521 111.265 51.3532 110.71 51.1727C110.149 50.9849 109.299 49.685 109.248 49.685Z" fill="#EF7E04" /> 
 <path d="M121.142 47.2442C121.142 47.2442 121.12 47.2515 121.113 47.2587C120.299 47.822 117.266 48.4358 116.258 48.6091C116.149 48.6452 116.005 48.6886 115.832 48.7463C115.083 48.9846 113.693 49.4251 113.412 49.389C110.185 49.1724 109.299 49.584 109.226 49.6273C109.226 49.6273 109.212 49.6418 109.205 49.6562H109.198C109.198 49.6562 109.19 49.6706 109.19 49.6778V49.6995C109.19 49.6995 109.212 49.7357 109.226 49.7429C109.226 49.7501 109.241 49.7573 109.248 49.7717C109.248 49.7717 109.248 49.7789 109.255 49.7789C109.284 49.8078 109.32 49.8584 109.356 49.909C109.363 49.909 109.363 49.9162 109.371 49.9234C109.378 49.9234 109.378 49.9306 109.378 49.9379C109.378 49.9379 109.383 49.9426 109.392 49.9522C109.551 50.1617 109.803 50.4867 110.062 50.7539C110.077 50.7755 110.098 50.7972 110.113 50.8116C110.134 50.8333 110.149 50.8477 110.163 50.8621C110.307 50.9993 110.451 51.1222 110.588 51.1944H110.595C110.595 51.1944 110.61 51.2015 110.624 51.2087C110.646 51.2232 110.675 51.2304 110.696 51.2376C110.711 51.2449 110.718 51.2449 110.732 51.2449C110.754 51.2521 110.761 51.2593 110.783 51.2593H110.79C110.79 51.2593 110.804 51.2666 110.811 51.2666C111.049 51.3316 111.301 51.346 111.503 51.346C111.762 51.346 111.957 51.3243 111.971 51.3171C111.993 51.3099 112.13 51.2593 112.13 51.1438C112.13 51.1221 112.122 51.0932 112.101 51.0716C112.389 51.1005 112.699 51.0933 112.922 51.086H113.009C113.059 51.086 113.095 51.0788 113.131 51.0788C113.21 51.0716 113.261 51.0716 113.275 51.0716C113.29 51.0644 113.419 51.021 113.419 50.9127C113.419 50.8694 113.405 50.8188 113.34 50.761C113.974 50.8405 114.694 50.8044 114.752 50.8044C114.788 50.8044 114.86 50.761 114.867 50.6816C114.874 50.6094 114.838 50.5011 114.514 50.2989C115.407 50.4217 116.041 50.2772 116.229 50.0389C116.286 49.9739 116.301 49.8945 116.265 49.8223C116.25 49.7862 116.214 49.7501 116.178 49.7212C116.517 49.6923 116.92 49.6129 117.345 49.519C117.36 49.5118 117.381 49.5117 117.403 49.5045H117.41C117.41 49.5045 117.417 49.4973 117.425 49.4973C117.468 49.4901 117.511 49.4829 117.554 49.4685H117.569C118.664 49.2013 119.823 48.8113 120.285 48.6163C120.385 48.5802 120.494 48.5297 120.594 48.4647C120.638 48.443 120.681 48.4141 120.724 48.378H120.731C120.731 48.378 120.738 48.3708 120.746 48.3708C120.81 48.3203 120.868 48.277 120.919 48.2264C121.243 47.9376 121.473 47.5837 121.43 47.396C121.416 47.3382 121.372 47.2226 121.149 47.2442H121.142ZM120.573 48.3131C120.573 48.3131 120.522 48.3491 120.493 48.3564C120.472 48.378 120.45 48.3853 120.421 48.3997C120.357 48.4358 120.292 48.4647 120.227 48.4864C119.507 48.7897 116.942 49.6056 115.818 49.6056H115.796C115.739 49.6056 115.674 49.5984 115.609 49.5984H115.602C115.602 49.5984 115.544 49.6273 115.537 49.6562C115.537 49.6923 115.559 49.7284 115.595 49.7284C115.652 49.7356 115.717 49.7429 115.789 49.7429C116.005 49.7645 116.113 49.8295 116.135 49.88C116.142 49.8873 116.157 49.9161 116.121 49.9595C115.962 50.1544 115.242 50.3278 114.14 50.0967C114.104 50.0895 114.075 50.1039 114.06 50.14C114.046 50.1689 114.06 50.205 114.096 50.2194C114.73 50.5444 114.73 50.6599 114.73 50.6671H114.723C114.723 50.6671 113.693 50.7177 113.045 50.5805C112.929 50.5299 112.785 50.4722 112.598 50.4072C112.569 50.3927 112.533 50.4072 112.519 50.4361C112.497 50.465 112.504 50.5011 112.533 50.5227C112.634 50.6022 112.8 50.66 112.987 50.7033C113.275 50.8333 113.275 50.9055 113.275 50.9055C113.275 50.9127 113.253 50.9343 113.239 50.9416C113.232 50.9416 112.353 51.0138 111.784 50.891C111.719 50.8622 111.647 50.8405 111.561 50.8188C111.525 50.8116 111.489 50.826 111.481 50.8621C111.467 50.891 111.481 50.9271 111.517 50.9416C111.582 50.9704 111.661 50.9994 111.748 51.0138C111.971 51.0933 111.986 51.151 111.986 51.151C111.986 51.1582 111.95 51.1799 111.935 51.1871C111.928 51.1871 111.272 51.2882 110.732 51.1077C110.718 51.1005 110.711 51.1005 110.696 51.0933C110.689 51.0933 110.682 51.086 110.667 51.086C110.631 51.0644 110.595 51.0499 110.559 51.0211C110.545 51.0138 110.538 51.0066 110.53 51.0066C110.523 51.0066 110.53 51.0066 110.516 50.9994C110.458 50.956 110.401 50.9054 110.336 50.8477L110.314 50.8261H110.307C110.307 50.8261 110.278 50.7899 110.257 50.7827L110.249 50.7755C110.235 50.7538 110.213 50.7322 110.199 50.7177C110.185 50.7033 110.17 50.6816 110.156 50.6671C110.091 50.6021 110.033 50.5444 109.976 50.4722C109.969 50.4578 109.954 50.4505 109.947 50.4433L109.839 50.3133C109.774 50.2339 109.709 50.1472 109.659 50.075L109.637 50.0533C109.637 50.0533 109.616 50.0317 109.608 50.0173L109.587 49.9956C109.543 49.9378 109.507 49.8873 109.471 49.844H109.464L109.457 49.8223C109.45 49.8223 109.45 49.8151 109.45 49.8151C109.414 49.7717 109.385 49.7356 109.363 49.714C109.644 49.6129 110.696 49.3384 113.398 49.5262C113.686 49.5623 114.781 49.2229 115.876 48.869C116.049 48.8185 116.193 48.768 116.294 48.7391C117.288 48.5658 120.321 47.952 121.178 47.3743C121.279 47.3743 121.293 47.4103 121.293 47.4248C121.329 47.5764 120.998 48.0314 120.573 48.3131Z" fill="#000100" /> 
 <path d="M110.581 56.3864L110.703 58.4084C110.703 58.4084 110.638 58.5095 110.581 58.5745C110.523 58.6322 109.025 58.3579 109.226 59.4122C109.226 59.8454 109.234 59.9537 109.558 60.1993C109.471 59.9176 109.5 59.7154 109.5 59.7154C109.5 59.7154 109.925 59.9465 110.336 59.3111C110.055 59.9393 110.249 60.1631 110.314 60.1848C110.379 60.3003 110.199 60.8058 110.768 60.7986C110.552 60.6108 110.653 60.3292 110.653 60.3292C110.653 60.3292 111.244 60.2426 111.035 59.2605C111.251 59.0655 111.337 59.2532 111.337 59.2532C111.337 59.2532 111.402 59.8382 111.921 59.7226C112.158 59.8454 111.885 60.1631 111.885 60.1631C111.885 60.1631 112.259 60.1703 112.375 59.8815C112.49 59.5854 112.62 59.0583 112 58.8489C111.928 58.6395 112.245 58.625 112.245 58.625C112.245 58.625 112.641 58.7478 112.749 58.9283C112.865 59.1088 112.821 58.4517 112.339 58.3867C111.741 58.3723 111.697 58.2567 111.697 58.2279C111.697 58.199 111.597 56.762 111.546 56.3503L110.581 56.4081V56.3864Z" fill="#EF7E04" /> 
 <path d="M110.732 57.679V57.5417C110.703 57.5851 110.682 57.6284 110.66 57.6718V57.7729C110.66 57.7729 110.631 57.8306 110.603 57.8523L110.638 58.3867C110.638 58.3867 110.581 58.4734 110.545 58.5167H110.408C110.17 58.5095 109.781 58.5022 109.5 58.6539C109.544 58.6755 109.565 58.6828 109.565 58.6828C109.572 58.6828 109.572 58.69 109.58 58.69C109.594 58.6972 109.601 58.7044 109.601 58.7188C109.601 58.7333 109.608 58.7405 109.608 58.7477C109.868 58.6394 110.213 58.6466 110.408 58.6466C110.552 58.6466 110.602 58.6538 110.631 58.6177C110.689 58.5527 110.761 58.4444 110.761 58.4444C110.768 58.43 110.775 58.4156 110.775 58.4011L110.732 57.679ZM110.732 57.679V57.5417C110.703 57.5851 110.682 57.6284 110.66 57.6718V57.7729C110.66 57.7729 110.631 57.8306 110.603 57.8523L110.638 58.3867C110.638 58.3867 110.581 58.4734 110.545 58.5167H110.408C110.17 58.5095 109.781 58.5022 109.5 58.6539C109.544 58.6755 109.565 58.6828 109.565 58.6828C109.572 58.6828 109.572 58.69 109.58 58.69C109.594 58.6972 109.601 58.7044 109.601 58.7188C109.601 58.7333 109.608 58.7405 109.608 58.7477C109.868 58.6394 110.213 58.6466 110.408 58.6466C110.552 58.6466 110.602 58.6538 110.631 58.6177C110.689 58.5527 110.761 58.4444 110.761 58.4444C110.768 58.43 110.775 58.4156 110.775 58.4011L110.732 57.679ZM112.339 58.3C111.842 58.2856 111.77 58.2061 111.77 58.2061C111.762 58.1917 111.755 58.0617 111.741 57.8668C111.741 57.8379 111.741 57.809 111.733 57.7801C111.733 57.7512 111.733 57.7223 111.726 57.6935C111.697 57.2313 111.647 56.5814 111.618 56.3214C111.611 56.2853 111.582 56.2563 111.546 56.2636L110.581 56.3214C110.581 56.3214 110.516 56.3575 110.516 56.3936L110.595 57.6501V57.7512L110.603 57.8523L110.638 58.3867C110.638 58.3867 110.581 58.4734 110.545 58.5167H110.408C110.17 58.5095 109.781 58.5022 109.5 58.6539C109.479 58.6611 109.457 58.6756 109.435 58.6972C109.407 58.7044 109.385 58.7261 109.363 58.7477C109.335 58.7694 109.306 58.791 109.284 58.8199C109.205 58.9066 109.162 59.0221 109.155 59.1521C109.147 59.181 109.147 59.2171 109.155 59.246C109.147 59.2676 109.155 59.2966 109.162 59.3182C109.155 59.3471 109.162 59.376 109.169 59.4049C109.169 59.4627 109.169 59.5132 109.176 59.5637C109.176 59.7298 109.191 59.8454 109.248 59.9537C109.291 60.0548 109.378 60.1414 109.522 60.2497C109.544 60.2642 109.572 60.2642 109.601 60.2497C109.623 60.2353 109.63 60.1992 109.623 60.1775C109.579 60.0115 109.565 59.8815 109.565 59.802C109.688 59.8309 109.911 59.8381 110.156 59.6287C110.098 59.867 110.127 60.0187 110.17 60.1126C110.199 60.1631 110.228 60.1993 110.264 60.2281C110.271 60.2498 110.271 60.2931 110.271 60.322C110.278 60.5098 110.286 60.8564 110.754 60.8564H110.775C110.775 60.8564 110.826 60.8347 110.833 60.813C110.84 60.7841 110.833 60.7553 110.811 60.7408C110.674 60.6181 110.696 60.452 110.711 60.3798C110.783 60.3581 110.912 60.3003 111.013 60.1559C111.157 59.9537 111.193 59.6576 111.114 59.2749C111.164 59.2388 111.208 59.2244 111.229 59.2316C111.258 59.2388 111.272 59.2532 111.28 59.2677C111.287 59.3254 111.337 59.5782 111.525 59.7081C111.633 59.7876 111.762 59.8093 111.914 59.7804C111.942 59.8021 111.95 59.8237 111.95 59.8382C111.971 59.9248 111.87 60.062 111.834 60.1053C111.82 60.127 111.82 60.1559 111.834 60.1775C111.834 60.1992 111.87 60.2137 111.892 60.2137C111.914 60.2209 112.317 60.2209 112.447 59.8887C112.562 59.5782 112.576 59.3327 112.483 59.1377C112.411 58.9788 112.267 58.8561 112.065 58.7767C112.058 58.755 112.065 58.7477 112.065 58.7405C112.094 58.6972 112.187 58.6755 112.238 58.6755C112.346 58.7116 112.612 58.82 112.692 58.9427C112.735 59.0149 112.785 59.0077 112.807 59.0005C112.857 58.986 112.879 58.9355 112.872 58.8561C112.85 58.6683 112.692 58.3506 112.339 58.3ZM112.267 58.5455C112.267 58.5455 112.252 58.5383 112.238 58.5383C112.216 58.5383 112.029 58.5528 111.95 58.6683C111.928 58.7044 111.906 58.7694 111.935 58.8561C111.942 58.8705 111.957 58.8849 111.978 58.8921C112.166 58.9571 112.295 59.0583 112.36 59.1955C112.432 59.3543 112.418 59.571 112.317 59.8382C112.259 59.9826 112.13 60.0403 112.029 60.0692C112.065 59.9898 112.101 59.8959 112.079 59.8092C112.072 59.7443 112.029 59.6865 111.957 59.6504C111.942 59.6504 111.928 59.6504 111.914 59.6504C111.791 59.6793 111.683 59.6648 111.604 59.607C111.438 59.4987 111.409 59.246 111.409 59.246C111.409 59.2387 111.409 59.2316 111.402 59.2244C111.402 59.2171 111.359 59.1305 111.258 59.1088C111.179 59.0871 111.092 59.1233 110.999 59.2099C110.984 59.2244 110.97 59.2532 110.977 59.2749C111.049 59.6287 111.027 59.9031 110.905 60.0837C110.797 60.2353 110.653 60.2642 110.646 60.2642C110.624 60.2642 110.603 60.2859 110.595 60.3076C110.595 60.3148 110.516 60.5242 110.624 60.7119C110.415 60.6614 110.408 60.488 110.408 60.3292C110.408 60.2497 110.401 60.192 110.379 60.1486C110.372 60.1342 110.358 60.127 110.343 60.1198C110.329 60.1126 110.307 60.0909 110.285 60.0404C110.249 59.9537 110.221 59.7442 110.401 59.3398C110.415 59.311 110.401 59.2676 110.372 59.2532C110.365 59.246 110.35 59.246 110.336 59.246C110.314 59.246 110.293 59.2532 110.285 59.2749C109.911 59.8526 109.551 59.6649 109.536 59.6576C109.515 59.6576 109.493 59.6576 109.471 59.6576C109.457 59.6649 109.443 59.6865 109.435 59.7081C109.435 59.7154 109.421 59.8382 109.45 60.0187C109.306 59.8743 109.299 59.7443 109.299 59.4049C109.284 59.3327 109.277 59.2749 109.277 59.2171C109.277 59.1738 109.284 59.1377 109.299 59.1016C109.306 59.0294 109.342 58.9644 109.385 58.9066C109.421 58.8705 109.457 58.8344 109.507 58.8055C109.536 58.7838 109.572 58.7694 109.608 58.755C109.868 58.6466 110.213 58.6539 110.408 58.6539C110.552 58.6539 110.602 58.6611 110.631 58.6249C110.689 58.56 110.761 58.4516 110.761 58.4516C110.768 58.4372 110.775 58.4228 110.775 58.4084L110.732 57.6862V57.549L110.725 57.5417L110.711 57.4118L110.653 56.4586L111.489 56.408C111.517 56.668 111.561 57.1807 111.589 57.5923C111.597 57.6212 111.597 57.6573 111.597 57.6862C111.597 57.7151 111.604 57.744 111.604 57.7729C111.618 58.0184 111.633 58.1989 111.633 58.2134C111.633 58.3506 111.863 58.4227 112.331 58.4372C112.497 58.4588 112.591 58.56 112.648 58.6466C112.677 58.69 112.699 58.7333 112.713 58.7767C112.555 58.6394 112.295 58.56 112.267 58.5527V58.5455ZM110.732 57.679V57.5417C110.703 57.5851 110.682 57.6284 110.66 57.6718V57.7729C110.66 57.7729 110.631 57.8306 110.603 57.8523L110.638 58.3867C110.638 58.3867 110.581 58.4734 110.545 58.5167H110.408C110.17 58.5095 109.781 58.5022 109.5 58.6539C109.544 58.6755 109.565 58.6828 109.565 58.6828C109.572 58.6828 109.572 58.69 109.58 58.69C109.594 58.6972 109.601 58.7044 109.601 58.7188C109.601 58.7333 109.608 58.7405 109.608 58.7477C109.868 58.6394 110.213 58.6466 110.408 58.6466C110.552 58.6466 110.602 58.6538 110.631 58.6177C110.689 58.5527 110.761 58.4444 110.761 58.4444C110.768 58.43 110.775 58.4156 110.775 58.4011L110.732 57.679Z" fill="#000100" /> 
 <path d="M112.67 58.1123C112.677 58.0184 111.647 56.7402 111.906 56.5741C112.166 56.6247 112.598 57.2024 112.944 57.0146C112.836 56.7907 112.526 56.9136 112.173 56.3358C111.82 55.6787 111.769 54.6966 110.53 53.6206C111.33 54.7544 113.145 55.4187 113.218 55.0937C113.297 54.7615 111.618 53.5123 111.705 53.209C112.036 53.83 113.722 55.2093 114.954 55.0937C115.04 54.8265 113.938 54.2922 113.657 53.7867C112.865 53.2957 110.746 51.6203 110.703 51.2303C109.932 50.1977 109.45 49.8872 109.227 49.7644C109.14 49.6705 109.118 49.5839 109.104 49.5261C108.629 48.4862 109.262 48.1541 109.63 48.1035C109.932 48.0747 110.026 48.1108 110.242 48.0169C109.983 47.923 109.724 47.8364 109.464 47.7425C109.803 47.9736 110.667 47.7713 110.48 48.4285C110.862 48.2985 111.669 47.4103 109.565 47.2153C108.881 46.4932 106.071 46.0815 105.365 49.23C105.423 49.2733 105.452 49.3095 105.632 49.4322C104.746 49.0351 102.347 48.7318 101.482 48.6018C99.1482 47.9807 96.7276 46.4932 96.4899 46.6737C96.1801 46.8037 97.9019 48.2697 97.8082 48.3058C96.317 47.5042 94.9554 46.9409 93.6875 46.421C92.7942 46.1177 91.9009 45.4027 91.8001 45.5327C91.4687 46.161 93.2337 47.728 93.5579 47.9158C93.8821 48.0963 96.4611 49.194 96.4178 49.2012C92.5421 47.5836 91.8937 47.2875 91.6992 47.107C91.3606 47.0348 90.525 46.0021 90.2945 46.0671C90.1648 46.1826 90.4241 47.8147 92.2756 48.544C92.5781 48.7462 96.2377 49.9522 96.2017 50.046C96.1945 50.0677 92.009 48.4574 91.8433 48.3996C91.0365 48.1108 90.0424 47.0853 89.8623 47.2009C89.6822 47.302 90.3161 48.4069 91.1374 48.7535C91.5624 48.9268 93.2048 49.6705 94.6817 50.1471C94.7753 50.176 92.0235 49.1867 90.7051 48.6812C90.1072 48.3779 89.8262 47.9952 89.7325 48.0746C89.5957 48.1541 89.9487 49.7861 94.1991 50.7104C94.3143 50.7537 95.6975 50.4071 95.6254 50.4577C95.611 50.4721 94.2495 50.7393 94.1198 50.7321C94.0046 50.7177 93.2553 50.8115 93.2481 50.8476C93.2049 50.9559 93.5147 51.5409 95.7119 51.4181C95.9928 51.4037 97.5128 50.9054 97.3831 51.0137C97.3183 51.0643 95.3084 51.6636 95.1571 51.6781C95.0275 51.6925 94.3215 51.7648 94.2927 51.8298C94.2639 51.9236 94.8186 52.3424 95.9928 52.4074C97.0374 52.458 99.0185 51.8225 98.9753 51.8658C98.9321 51.9091 97.0662 52.4941 97.0157 52.5302C96.9509 52.5663 96.2594 52.6024 96.2377 52.6458C96.1801 52.7685 97.2247 53.6639 100.315 52.7035C100.005 53.0862 98.507 53.3534 98.507 53.4184C98.507 53.469 98.8383 53.765 99.357 53.8734C99.6164 53.9239 99.9766 53.9167 100.301 53.8734C100.892 53.765 101.511 53.5484 102.296 52.884C102.39 53.0935 100.33 54.0539 100.423 54.1405C100.87 54.5233 102.354 54.09 102.455 54.0394C102.548 53.9889 105.315 52.559 105.3 52.393C105.344 52.6024 101.742 54.4077 101.778 54.4799C102.008 54.8193 103.24 54.4655 103.298 54.4294C103.355 54.4005 104.868 53.6495 104.911 53.6279C104.955 53.6062 103.132 54.6027 103.298 54.7616C103.218 55.4115 106.136 54.3139 106.367 54.1767C106.482 54.1117 104.962 54.7904 104.962 55.1154C105.452 55.8736 107.015 55.6353 107.253 55.4692C107.375 55.3826 107.108 56.0326 107.195 55.9748C107.224 55.9603 107.534 55.6281 107.656 55.3826C107.62 55.592 107.447 55.9314 107.346 56.3142C107.245 56.6969 107.217 57.1302 107.08 57.5923C107.051 57.7945 108.045 57.1952 107.901 55.7726C107.987 56.5164 107.584 57.9029 107.692 57.9751C107.901 58.1195 108.477 57.2818 108.535 56.7185C108.708 57.0001 109.068 57.5995 109.378 57.7367C109.342 57.3035 109.378 57.3251 109.241 56.899C109.32 56.3358 109.335 55.5559 109.349 54.6749C110.192 56.1553 110.523 56.7835 110.293 57.9173C110.545 58.0111 110.941 57.1229 110.912 56.668C111.236 57.9389 112.62 58.1267 112.641 58.0906L112.67 58.1123Z" fill="#EF7E04" /> 
 <path d="M113.318 53.5556H113.311C113.311 53.5556 113.304 53.5485 113.304 53.5412C113.246 53.4979 113.181 53.4545 113.109 53.4112C112.965 53.3029 112.814 53.1874 112.648 53.0646C112.382 52.8552 112.094 52.6313 111.834 52.4074C111.705 52.2991 111.589 52.1981 111.474 52.097C111.402 52.032 111.33 51.967 111.272 51.902C111.208 51.8442 111.143 51.7864 111.092 51.7287C110.984 51.6204 110.898 51.5265 110.833 51.4398C110.833 51.4326 110.833 51.4253 110.826 51.4253C110.797 51.382 110.775 51.3531 110.754 51.3242C110.739 51.2954 110.725 51.2665 110.725 51.2448C110.71 51.2448 110.703 51.2448 110.689 51.2376C110.667 51.2304 110.638 51.2231 110.617 51.2087C110.631 51.2303 110.646 51.2448 110.66 51.2665C110.674 51.3243 110.711 51.3893 110.775 51.4759C110.797 51.5121 110.833 51.5481 110.869 51.5914C111.294 52.0825 112.274 52.8768 113.001 53.404C113.109 53.4834 113.203 53.5557 113.297 53.6134C113.297 53.6134 113.299 53.6158 113.304 53.6207L113.635 53.7723C113.549 53.7145 113.441 53.6423 113.318 53.5556ZM112.151 53.6495L112.101 53.599C111.95 53.4401 111.842 53.2957 111.777 53.1802C111.762 53.1513 111.741 53.1368 111.712 53.144C111.683 53.144 111.661 53.1656 111.654 53.1945C111.618 53.3029 111.733 53.4762 111.957 53.7145C111.971 53.729 111.986 53.7434 112 53.7578C112.014 53.7723 112.029 53.7867 112.05 53.8084L112.101 53.7723C112.101 53.7723 112.072 53.7362 112.058 53.7218L112.101 53.6856C112.101 53.6856 112.13 53.7217 112.144 53.7361L112.195 53.7001C112.195 53.7001 112.166 53.6639 112.151 53.6495ZM111.287 54.3788L111.344 54.3356C111.344 54.3356 111.308 54.3138 111.294 54.2922C111.272 54.285 111.258 54.2706 111.236 54.2561H111.229C111.064 54.0323 110.847 53.8084 110.581 53.5773C110.559 53.5484 110.523 53.5484 110.494 53.5773C110.473 53.5989 110.466 53.635 110.487 53.6639C110.66 53.9095 110.883 54.1406 111.128 54.3356C111.143 54.35 111.157 54.3716 111.164 54.3861C111.179 54.4077 111.193 54.4222 111.208 54.4439L111.258 54.4005C111.258 54.4005 111.236 54.3717 111.222 54.35L111.236 54.3356C111.236 54.3356 111.265 54.3716 111.287 54.3788ZM110.725 57.5345L110.71 57.4046C110.696 57.4552 110.674 57.5057 110.653 57.549C110.631 57.5851 110.617 57.614 110.595 57.6501C110.545 57.7368 110.487 57.8018 110.429 57.8451C110.422 57.8523 110.415 57.8596 110.408 57.8596C110.617 56.733 110.242 56.0686 109.443 54.6605H109.435C109.435 54.6605 109.392 54.6172 109.363 54.6244C109.342 54.6316 109.327 54.646 109.32 54.6605C109.313 54.6677 109.313 54.6822 109.313 54.6894V54.8916C109.291 55.6932 109.277 56.3864 109.205 56.9063V56.9352C109.313 57.2457 109.313 57.3035 109.32 57.5057C109.327 57.5418 109.327 57.5779 109.327 57.6284C109.212 57.5418 109.097 57.4046 108.982 57.253C108.946 57.2024 108.91 57.1591 108.881 57.1085H108.873C108.845 57.0507 108.809 57.0002 108.787 56.9569L108.816 57.1302C108.816 57.1302 108.816 57.1374 108.816 57.1447C108.845 57.1808 108.873 57.224 108.902 57.2674C108.902 57.2674 108.902 57.3035 108.902 57.3685C108.924 57.3974 108.946 57.4262 108.967 57.4479C109.097 57.614 109.241 57.7512 109.378 57.809C109.399 57.8162 109.421 57.8162 109.443 57.8017C109.464 57.7873 109.471 57.7657 109.471 57.744C109.464 57.6357 109.457 57.5635 109.457 57.4985C109.443 57.2963 109.443 57.224 109.342 56.9063C109.414 56.3936 109.428 55.7148 109.443 54.9349C110.221 56.3142 110.473 56.8919 110.257 57.9245C110.249 57.9534 110.271 57.9823 110.3 57.9967C110.343 58.0112 110.415 58.0184 110.509 57.9534C110.545 57.9318 110.574 57.8957 110.602 57.8523C110.631 57.8307 110.646 57.8018 110.667 57.7729V57.6718C110.682 57.6285 110.703 57.5851 110.725 57.5418V57.5345ZM113.318 53.5556H113.311C113.311 53.5556 113.304 53.5485 113.304 53.5412C113.297 53.5412 113.29 53.5412 113.282 53.534C113.232 53.4979 113.167 53.4545 113.109 53.4112C112.965 53.3029 112.814 53.1874 112.648 53.0646C112.382 52.8552 112.094 52.6313 111.834 52.4074C111.705 52.2991 111.589 52.1981 111.474 52.097C111.402 52.032 111.33 51.967 111.272 51.902C111.208 51.8442 111.143 51.7864 111.092 51.7287C110.984 51.6204 110.898 51.5265 110.833 51.4398C110.833 51.4326 110.833 51.4253 110.826 51.4253C110.797 51.3892 110.775 51.3531 110.754 51.3242C110.739 51.2954 110.725 51.2665 110.725 51.2448C110.71 51.2448 110.703 51.2448 110.689 51.2376C110.667 51.2304 110.638 51.2231 110.617 51.2087C110.631 51.2303 110.646 51.2448 110.66 51.2665C110.674 51.3243 110.711 51.3893 110.775 51.4759C110.797 51.5121 110.833 51.5481 110.869 51.5914C111.294 52.0825 112.274 52.8768 113.001 53.404C113.109 53.4834 113.203 53.5557 113.297 53.6134C113.297 53.6134 113.299 53.6158 113.304 53.6207L113.635 53.7723C113.549 53.7145 113.441 53.6423 113.318 53.5556ZM112.101 53.599C111.95 53.4401 111.842 53.2957 111.777 53.1802C111.762 53.1513 111.741 53.1368 111.712 53.144C111.683 53.144 111.661 53.1656 111.654 53.1945C111.618 53.3029 111.733 53.4762 111.957 53.7145C111.971 53.729 111.986 53.7434 112 53.7578C112.014 53.7723 112.029 53.7867 112.05 53.8084L112.101 53.7723C112.101 53.7723 112.072 53.7362 112.058 53.7218L112.101 53.6856C112.101 53.6856 112.13 53.7217 112.144 53.7361L112.195 53.7001C112.195 53.7001 112.166 53.6639 112.151 53.6495L112.101 53.599ZM111.236 54.2561H111.229C111.064 54.0323 110.847 53.8084 110.581 53.5773C110.559 53.5484 110.523 53.5484 110.494 53.5773C110.473 53.5989 110.466 53.635 110.487 53.6639C110.66 53.9095 110.883 54.1406 111.128 54.3356C111.143 54.35 111.157 54.3716 111.164 54.3861C111.179 54.4077 111.193 54.4222 111.208 54.4439L111.258 54.4005C111.258 54.4005 111.236 54.3717 111.222 54.35L111.236 54.3356C111.236 54.3356 111.265 54.3716 111.287 54.3788L111.344 54.3356C111.344 54.3356 111.308 54.3138 111.294 54.2922C111.272 54.285 111.258 54.2706 111.236 54.2561ZM110.653 57.549C110.631 57.5851 110.617 57.614 110.595 57.6501C110.545 57.7368 110.487 57.8018 110.429 57.8451C110.422 57.8523 110.415 57.8596 110.408 57.8596C110.617 56.733 110.242 56.0686 109.443 54.6605H109.435C109.435 54.6605 109.392 54.6172 109.363 54.6244C109.342 54.6316 109.327 54.646 109.32 54.6605C109.313 54.6677 109.313 54.6822 109.313 54.6894V54.8916C109.291 55.6932 109.277 56.3864 109.205 56.9063V56.9352C109.313 57.2457 109.313 57.3035 109.32 57.5057C109.327 57.5418 109.327 57.5779 109.327 57.6284C109.212 57.5418 109.097 57.4046 108.982 57.253C108.946 57.2024 108.91 57.1591 108.881 57.1085H108.873C108.845 57.0507 108.809 57.0002 108.787 56.9569L108.816 57.1302C108.816 57.1302 108.816 57.1374 108.816 57.1447C108.845 57.1808 108.873 57.224 108.902 57.2674C108.902 57.2674 108.902 57.3035 108.902 57.3685C108.924 57.3974 108.946 57.4262 108.967 57.4479C109.097 57.614 109.241 57.7512 109.378 57.809C109.399 57.8162 109.421 57.8162 109.443 57.8017C109.464 57.7873 109.471 57.7657 109.471 57.744C109.464 57.6357 109.457 57.5635 109.457 57.4985C109.443 57.2963 109.443 57.224 109.342 56.9063C109.414 56.3936 109.428 55.7148 109.443 54.9349C110.221 56.3142 110.473 56.8919 110.257 57.9245C110.249 57.9534 110.271 57.9823 110.3 57.9967C110.343 58.0112 110.415 58.0184 110.509 57.9534C110.545 57.9318 110.574 57.8957 110.602 57.8523C110.631 57.8307 110.646 57.8018 110.667 57.7729V57.6718C110.682 57.6285 110.703 57.5851 110.725 57.5418L110.71 57.4046C110.696 57.4552 110.674 57.5057 110.653 57.549ZM114.846 54.7616C114.781 54.6966 114.694 54.6316 114.601 54.5594L114.586 54.545C114.543 54.5161 114.507 54.48 114.464 54.4511C114.399 54.4006 114.334 54.35 114.269 54.2994C114.269 54.2922 114.255 54.2922 114.248 54.285C114.118 54.1839 113.995 54.0756 113.895 53.9745C113.859 53.9312 113.815 53.8878 113.787 53.8445C113.765 53.8156 113.743 53.7867 113.729 53.7578C113.729 53.7506 113.729 53.7434 113.707 53.7361C112.85 53.2018 110.955 51.6565 110.804 51.2665C110.804 51.2521 110.79 51.2376 110.79 51.2304C110.79 51.2159 110.783 51.2087 110.775 51.1943H110.768C110.747 51.151 110.718 51.1221 110.696 51.0932C110.617 50.9849 110.538 50.8837 110.458 50.7899C110.444 50.7682 110.422 50.7466 110.415 50.7321C110.394 50.7105 110.379 50.696 110.365 50.6743C110.213 50.501 110.069 50.3494 109.932 50.2338C109.774 50.0822 109.615 49.945 109.471 49.8439H109.464L109.457 49.8222C109.45 49.8222 109.45 49.815 109.45 49.815C109.392 49.7789 109.342 49.75 109.291 49.7211C109.277 49.7067 109.263 49.6922 109.255 49.6778C109.248 49.6561 109.234 49.6417 109.226 49.6273C109.212 49.5911 109.198 49.555 109.19 49.5261C109.19 49.5189 109.183 49.5045 109.183 49.5045C108.996 49.1001 108.967 48.7679 109.097 48.5296C109.248 48.248 109.565 48.1902 109.659 48.1758C109.752 48.1685 109.832 48.1613 109.896 48.1613C110.033 48.1613 110.127 48.1541 110.293 48.0819C110.307 48.0747 110.314 48.0674 110.321 48.053C110.365 48.0746 110.401 48.1035 110.422 48.1396C110.466 48.2046 110.473 48.2913 110.437 48.414C110.429 48.4429 110.437 48.4647 110.451 48.4863C110.473 48.5008 110.502 48.5079 110.523 48.5007C110.725 48.4285 111.078 48.1397 111.035 47.8219C110.991 47.4681 110.516 47.2442 109.616 47.1575C109.219 46.7604 108.254 46.486 107.361 46.7387C106.633 46.9409 105.696 47.5331 105.315 49.2157V49.2445C104.4 48.9556 102.793 48.7245 101.878 48.5946C101.742 48.5729 101.612 48.5585 101.518 48.5441C100.221 48.1974 98.9032 47.5837 97.9378 47.1359C97.0085 46.7099 96.6123 46.5293 96.4754 46.6232C96.4394 46.6376 96.4178 46.6665 96.4106 46.7098C96.3746 46.8831 96.6988 47.2442 97.3903 47.923C97.4408 47.9808 97.4985 48.0313 97.5489 48.0891C96.2017 47.3886 94.977 46.8687 93.7307 46.3632C93.2769 46.2116 92.8375 45.9588 92.4773 45.7494C92.045 45.5039 91.8505 45.3884 91.7641 45.5111C91.4543 46.1033 92.7726 47.3814 93.3417 47.8364C92.2179 47.3526 91.8866 47.1792 91.7713 47.0709C91.7569 47.0637 91.7496 47.0565 91.7352 47.0493C91.5912 47.0204 91.303 46.7604 91.0509 46.5221C90.6835 46.1827 90.4457 45.9733 90.2944 46.0166C90.2872 46.0166 90.28 46.0238 90.2728 46.0311C90.2008 46.0888 90.2152 46.2694 90.2441 46.4066C90.3305 46.8832 90.6403 47.5042 91.231 48.0097C91.0221 47.8653 90.8059 47.7136 90.6186 47.5692C90.1719 47.237 89.9703 47.0925 89.8478 47.1648C89.8118 47.1792 89.7758 47.2226 89.783 47.3092C89.8046 47.5909 90.244 48.2913 90.8275 48.6741C90.7987 48.6669 90.7771 48.6524 90.7483 48.6452C90.4529 48.4935 90.2368 48.3202 90.0783 48.1974C89.8982 48.0602 89.7902 47.9736 89.711 48.0458C89.6749 48.0603 89.6461 48.1107 89.6605 48.2407C89.6749 48.3057 89.9631 49.7861 93.8028 50.7104C93.5434 50.7321 93.2265 50.7755 93.1977 50.8405C93.1761 50.891 93.1976 50.9632 93.2481 51.0354C93.3705 51.2087 93.846 51.5987 95.647 51.512C95.3949 51.5842 95.2004 51.6348 95.1643 51.6348L95.0635 51.6493C94.3575 51.7287 94.271 51.7648 94.2422 51.837C94.235 51.8659 94.2422 51.9019 94.2638 51.938C94.3719 52.0969 94.9338 52.4363 96.0072 52.5013C96.4179 52.5158 96.9725 52.4363 97.4912 52.328C97.1022 52.4508 97.0158 52.4869 97.0086 52.4941C96.9798 52.5085 96.814 52.523 96.6916 52.5375C96.2809 52.5736 96.2234 52.588 96.1945 52.6458C96.1801 52.6891 96.1945 52.7396 96.2449 52.7974C96.2521 52.8046 97.0734 53.7001 99.9334 52.9202C99.6236 53.0574 99.1914 53.1802 98.896 53.2596C98.5214 53.3607 98.4637 53.3751 98.4637 53.4401C98.4493 53.5701 98.8816 53.8734 99.3714 53.9745C99.6164 54.025 99.9693 54.025 100.344 53.9673C100.466 53.9456 100.596 53.9167 100.74 53.8806C100.452 54.0467 100.394 54.0973 100.387 54.155C100.38 54.1767 100.394 54.2055 100.409 54.22C100.747 54.5088 101.569 54.3789 102.08 54.2561C101.713 54.4655 101.72 54.4871 101.756 54.5521C102.023 54.9421 103.298 54.5522 103.362 54.5233C103.377 54.5161 103.47 54.4655 103.6 54.4005C103.398 54.5522 103.262 54.6749 103.254 54.7544C103.247 54.7688 103.254 54.7905 103.262 54.805C103.262 54.8844 103.29 54.9494 103.355 54.9927C103.643 55.1805 104.594 54.9277 105.365 54.6677C105.12 54.8266 104.926 54.9999 104.926 55.1371C104.926 55.1516 104.926 55.166 104.933 55.1733C105.099 55.4332 105.387 55.5993 105.783 55.6787C106.345 55.7942 106.979 55.6932 107.238 55.5921C107.224 55.6426 107.202 55.7076 107.195 55.7509C107.137 55.9459 107.123 56.0109 107.173 56.0542C107.195 56.0687 107.231 56.0687 107.253 56.0542C107.281 56.047 107.368 55.9531 107.469 55.8303C107.418 55.9748 107.353 56.1409 107.31 56.3142C107.267 56.4803 107.238 56.6608 107.202 56.8413C107.166 57.0869 107.123 57.3324 107.044 57.5924C107.036 57.6357 107.051 57.6718 107.08 57.6935C107.13 57.7224 107.195 57.7151 107.289 57.6573C107.418 57.5779 107.598 57.4118 107.75 57.1447C107.735 57.2096 107.728 57.2674 107.714 57.318C107.62 57.8668 107.606 57.9895 107.678 58.0401C107.714 58.069 107.771 58.0906 107.858 58.0473C107.865 58.0545 107.865 58.0473 107.872 58.0473C107.894 58.0401 107.915 58.0256 107.937 58.0039C107.966 57.9895 107.995 57.9679 108.023 57.9317C108.247 57.7223 108.499 57.2963 108.6 56.9135C108.665 57.0291 108.751 57.1591 108.845 57.289C108.866 57.3179 108.881 57.3468 108.902 57.3685C108.924 57.3974 108.946 57.4262 108.967 57.4479C109.097 57.614 109.241 57.7512 109.378 57.809C109.399 57.8162 109.421 57.8162 109.443 57.8017C109.464 57.7873 109.471 57.7657 109.471 57.744C109.464 57.6357 109.457 57.5635 109.457 57.4985C109.443 57.2963 109.443 57.224 109.342 56.9063C109.414 56.3936 109.428 55.7148 109.443 54.9349C110.221 56.3142 110.473 56.8919 110.257 57.9245C110.249 57.9534 110.271 57.9823 110.3 57.9967C110.343 58.0112 110.415 58.0184 110.509 57.9534C110.545 57.9318 110.574 57.8957 110.602 57.8523C110.631 57.8307 110.646 57.8018 110.667 57.7729C110.689 57.744 110.71 57.7151 110.732 57.679C110.84 57.484 110.934 57.2313 110.977 57.0074C111.128 57.354 111.359 57.5996 111.604 57.7657C111.625 57.7873 111.647 57.8017 111.676 57.8162C111.697 57.8378 111.719 57.8523 111.741 57.8668C112.144 58.1051 112.526 58.1628 112.555 58.17C112.591 58.1772 112.62 58.1772 112.648 58.1772C112.692 58.1772 112.713 58.1701 112.728 58.1412C112.728 58.134 112.728 58.1267 112.742 58.1123C112.742 58.069 112.706 58.0112 112.511 57.7295C112.303 57.4118 111.906 56.8269 111.935 56.6536C112.007 56.6825 112.108 56.7547 112.209 56.8269C112.439 57.0002 112.72 57.2169 112.98 57.0725C113.009 57.058 113.023 57.0218 113.009 56.9857C112.958 56.8774 112.865 56.8341 112.764 56.7908C112.62 56.7186 112.439 56.6391 112.238 56.307C112.223 56.2781 112.209 56.2492 112.202 56.2203C112.173 56.1698 112.151 56.1192 112.13 56.0687C112.108 56.0181 112.086 55.9675 112.065 55.917C112.05 55.8448 112.022 55.787 112 55.722C111.878 55.3826 111.741 54.9999 111.481 54.5955C112.144 55.0432 112.857 55.296 113.145 55.2382C113.261 55.2166 113.297 55.1515 113.304 55.1082C113.34 54.9493 113.131 54.7038 112.771 54.3356C113.441 54.8194 114.284 55.231 114.982 55.166C115.011 55.1588 115.033 55.1443 115.04 55.1154C115.076 55.0071 114.997 54.8988 114.853 54.7616H114.846ZM114.824 55.036C113.916 55.036 112.814 54.3067 112.195 53.7001C112.18 53.6784 112.166 53.6639 112.151 53.6495L112.101 53.599C111.95 53.4401 111.842 53.2957 111.777 53.1802C111.762 53.1513 111.741 53.1368 111.712 53.144C111.683 53.144 111.661 53.1656 111.654 53.1945C111.618 53.3029 111.733 53.4762 111.957 53.7145C111.971 53.729 111.986 53.7434 112 53.7578C112.014 53.7723 112.029 53.7867 112.05 53.8084C112.151 53.9167 112.274 54.0395 112.411 54.1767C112.742 54.5017 113.196 54.9494 113.167 55.0794C113.16 55.0938 113.131 55.1082 113.117 55.1082C112.857 55.166 112.043 54.8699 111.344 54.3356C111.323 54.3211 111.308 54.3138 111.294 54.2922C111.272 54.285 111.258 54.2706 111.236 54.2561H111.229C111.064 54.0323 110.847 53.8084 110.581 53.5773C110.559 53.5484 110.523 53.5484 110.494 53.5773C110.473 53.5989 110.466 53.635 110.487 53.6639C110.66 53.9095 110.883 54.1406 111.128 54.3356C111.143 54.35 111.157 54.3716 111.164 54.3861C111.179 54.4077 111.193 54.4222 111.208 54.4439C111.561 54.9277 111.726 55.3826 111.87 55.7654C111.877 55.787 111.885 55.8159 111.899 55.8376C111.906 55.8664 111.921 55.8953 111.928 55.9242C111.942 55.9531 111.95 55.982 111.957 56.0109C112.007 56.1408 112.058 56.2636 112.122 56.3719C112.346 56.7402 112.555 56.8341 112.706 56.9063C112.771 56.9352 112.807 56.9568 112.843 56.9857C112.677 57.0074 112.468 56.8557 112.288 56.7258C112.151 56.6174 112.029 56.5308 111.921 56.5092C111.906 56.5092 111.885 56.5092 111.87 56.5164C111.841 56.5381 111.813 56.5742 111.805 56.6175C111.762 56.8342 112.05 57.2818 112.403 57.8017C112.461 57.8884 112.519 57.9751 112.562 58.0401C112.396 58.0112 112.05 57.9246 111.726 57.6935C111.705 57.679 111.683 57.6645 111.661 57.6429C111.633 57.6284 111.611 57.614 111.589 57.5851C111.337 57.3829 111.114 57.0869 111.006 56.668C110.999 56.6391 110.97 56.6175 110.941 56.6175H110.934C110.934 56.6175 110.876 56.6536 110.876 56.6897C110.891 56.8847 110.819 57.1663 110.71 57.4046C110.696 57.4552 110.674 57.5057 110.653 57.549C110.631 57.5851 110.617 57.614 110.595 57.6501C110.545 57.7368 110.487 57.8018 110.429 57.8451C110.422 57.8523 110.415 57.8596 110.408 57.8596C110.617 56.733 110.242 56.0686 109.443 54.6605H109.435C109.435 54.6605 109.392 54.6172 109.363 54.6244C109.342 54.6316 109.327 54.646 109.32 54.6605C109.313 54.6677 109.313 54.6822 109.313 54.6894V54.8916C109.291 55.6932 109.277 56.3864 109.205 56.9063V56.9352C109.313 57.2457 109.313 57.3035 109.32 57.5057C109.327 57.5418 109.327 57.5779 109.327 57.6284C109.212 57.5418 109.097 57.4046 108.982 57.253C108.946 57.2024 108.91 57.1591 108.881 57.1085H108.873C108.845 57.0507 108.809 57.0002 108.787 56.9569C108.715 56.8558 108.665 56.7619 108.621 56.6969C108.607 56.6681 108.578 56.6608 108.549 56.668C108.52 56.6752 108.499 56.6969 108.499 56.7258C108.47 56.9785 108.326 57.3035 108.168 57.549C108.117 57.6212 108.067 57.6934 108.023 57.744H108.016C107.98 57.7945 107.951 57.8234 107.915 57.8523C107.915 57.8523 107.913 57.8547 107.908 57.8596C107.908 57.8596 107.843 57.9101 107.815 57.9245C107.8 57.9317 107.778 57.939 107.771 57.9317C107.757 57.8595 107.807 57.5852 107.85 57.3396C107.894 57.0725 107.951 56.7475 107.98 56.437C108.009 56.2637 108.016 56.0831 108.002 55.8809C108.002 55.8448 107.995 55.8087 107.995 55.7798C107.987 55.7437 107.959 55.7148 107.923 55.722C107.886 55.722 107.858 55.7582 107.865 55.7943C107.865 55.8232 107.865 55.8593 107.865 55.8954C107.872 56.0398 107.865 56.2131 107.843 56.3936C107.771 56.9208 107.534 57.2385 107.411 57.3757C107.317 57.4768 107.231 57.5346 107.188 57.5562C107.253 57.3179 107.289 57.0869 107.332 56.8702C107.361 56.6825 107.389 56.5092 107.433 56.3503C107.483 56.1554 107.548 55.9747 107.613 55.8159C107.67 55.657 107.721 55.5271 107.742 55.4115C107.75 55.3826 107.728 55.3465 107.699 55.3393C107.663 55.3321 107.634 55.3393 107.62 55.3754C107.548 55.5126 107.411 55.686 107.31 55.8087C107.31 55.8015 107.31 55.7943 107.317 55.787C107.361 55.6426 107.382 55.556 107.375 55.5054C107.375 55.5054 107.361 55.4549 107.346 55.4404H107.339C107.339 55.4404 107.339 55.4332 107.332 55.4332C107.325 55.426 107.303 55.4115 107.281 55.4188C107.267 55.4188 107.26 55.4188 107.238 55.4332C107.101 55.5271 106.403 55.6714 105.805 55.5487C105.452 55.4765 105.199 55.3393 105.055 55.1227C105.099 54.9349 105.776 54.5666 106.158 54.3788C106.302 54.3211 106.395 54.2778 106.424 54.2634C106.453 54.2417 106.467 54.2056 106.46 54.1767C106.446 54.1478 106.417 54.1261 106.381 54.1333C106.381 54.1333 106.273 54.1767 106.114 54.2561C105.459 54.5161 103.751 55.0938 103.427 54.8844C103.391 54.8627 103.384 54.8338 103.384 54.7977C103.391 54.7833 103.384 54.7688 103.384 54.7616C103.435 54.6533 103.939 54.2922 104.962 53.7218H104.969C104.969 53.7218 105.012 53.6568 104.998 53.6279C104.976 53.5918 104.94 53.5845 104.904 53.599C104.882 53.6062 104.515 53.794 104.162 53.9673C103.751 54.1767 103.326 54.3861 103.298 54.4005C103.197 54.4438 102.159 54.7255 101.9 54.5161C102.044 54.4222 102.534 54.155 103.009 53.8951C104.054 53.3318 104.659 52.9924 104.991 52.7757H104.998C105.055 52.7396 105.106 52.7107 105.142 52.6891C105.149 52.6819 105.156 52.6746 105.163 52.6674C105.351 52.5374 105.401 52.4724 105.387 52.4147H105.38C105.38 52.3786 105.358 52.3642 105.336 52.3642C105.329 52.3569 105.322 52.3569 105.315 52.3569C105.286 52.3641 105.264 52.3858 105.257 52.4147C105.135 52.588 103.276 53.5845 102.448 54.0105C102.332 54.0683 101 54.4439 100.538 54.155C100.647 54.0756 100.949 53.9022 101.201 53.765C102.159 53.2307 102.448 53.0357 102.376 52.8841C102.376 52.8768 102.375 52.8696 102.361 52.8624H102.354C102.354 52.8624 102.347 52.8479 102.332 52.8479H102.318C102.318 52.8479 102.303 52.8551 102.303 52.8479C102.289 52.8479 102.282 52.8552 102.275 52.8624C101.461 53.5484 100.848 53.7361 100.315 53.8372C99.9622 53.8878 99.6236 53.8878 99.3858 53.8445C98.9824 53.7578 98.7159 53.5628 98.6223 53.4762C98.6871 53.4545 98.8023 53.4184 98.9248 53.3895C99.4146 53.2523 100.157 53.0501 100.38 52.7757C100.394 52.7541 100.402 52.718 100.38 52.6963C100.366 52.6674 100.337 52.6602 100.308 52.6674C97.9667 53.3967 96.8861 53.0357 96.5331 52.8479C96.425 52.7902 96.3674 52.7469 96.3386 52.7108C96.425 52.6963 96.5835 52.6818 96.6988 52.6674C96.9293 52.6457 97.023 52.6313 97.059 52.6097C97.1022 52.588 97.5273 52.4508 97.9091 52.328C98.9537 51.9886 99.0112 51.9597 99.0329 51.9308C99.0545 51.9164 99.0617 51.8803 99.0473 51.8514C99.0281 51.8177 98.9152 51.8298 98.7087 51.8875C98.1396 52.0392 96.7997 52.4075 96.0072 52.3642C94.9987 52.3064 94.4872 52.0031 94.3863 51.8875C94.4728 51.8586 94.7033 51.8225 95.0779 51.7792C95.1211 51.772 95.1499 51.772 95.1715 51.772C95.2868 51.7575 97.3327 51.1726 97.4336 51.086C97.4552 51.0715 97.4696 51.021 97.4552 50.9921C97.4264 50.9271 97.4191 50.9271 96.6555 51.1365C96.2737 51.2448 95.8415 51.3676 95.7118 51.3748C94.0117 51.4687 93.5146 51.1365 93.3778 50.9921C93.3417 50.956 93.3273 50.9271 93.3201 50.9127C93.4714 50.8766 94.0333 50.8043 94.1198 50.8188C94.1414 50.8188 94.1918 50.8115 94.271 50.8043C94.3503 50.8043 94.5016 50.7755 94.7537 50.7249C95.1716 50.6455 95.6398 50.5516 95.6686 50.5299C95.6974 50.5155 95.7118 50.4794 95.6974 50.4505C95.683 50.4072 95.5077 50.4216 95.1715 50.4938C95.0347 50.5299 94.833 50.5732 94.6529 50.6021C94.5232 50.631 94.4079 50.6526 94.3142 50.6671C94.271 50.6671 94.235 50.6671 94.2206 50.6671C90.9716 49.9666 90.0928 48.8762 89.8694 48.4429C89.7902 48.2913 89.783 48.1974 89.783 48.1613C89.8262 48.1757 89.9127 48.2408 89.9847 48.3058C90.1504 48.4285 90.3737 48.6091 90.6907 48.768C91.2958 48.999 92.2179 49.3384 93.0176 49.6345C93.5435 49.8439 94.1198 50.0605 94.6673 50.2338C94.7033 50.2483 94.7465 50.2266 94.7537 50.1978C94.7609 50.1833 94.7609 50.1761 94.7609 50.1616C94.7609 50.1472 94.7537 50.1328 94.7105 50.1111C94.6889 50.1039 94.6745 50.0966 94.6529 50.0894C94.588 50.0605 94.4871 50.0244 94.3286 49.9666C94.0261 49.8583 93.5722 49.6922 93.068 49.5117C92.47 49.2734 91.937 49.0423 91.5768 48.8834C91.3967 48.8112 91.2598 48.7462 91.1733 48.7174C90.5898 48.4646 90.0855 47.8074 89.9415 47.4247C89.9054 47.3308 89.9054 47.2803 89.9054 47.2803C89.9702 47.2587 90.2872 47.4898 90.5321 47.6775C90.9212 47.9664 91.3967 48.3274 91.8361 48.4791C91.8721 48.4935 92.1675 48.6091 92.5637 48.7607C92.6934 48.8113 92.8519 48.869 93.0392 48.9413C96.1873 50.1472 96.2017 50.1399 96.2449 50.1255C96.2593 50.1183 96.2738 50.1039 96.281 50.0894C96.281 50.075 96.281 50.0461 96.2738 50.0317C96.245 49.9595 96.0072 49.8655 94.3071 49.259C93.8749 49.1001 93.421 48.9412 93.0464 48.804C92.9816 48.7751 92.9167 48.7535 92.8519 48.7246C92.7798 48.6957 92.7078 48.6668 92.6357 48.6452C92.47 48.5802 92.3548 48.5296 92.3116 48.5007C91.0293 47.988 90.5826 47.0637 90.4457 46.6882C90.3448 46.3994 90.3376 46.2044 90.352 46.1466C90.4601 46.1611 90.7555 46.4354 90.95 46.6232C91.231 46.8831 91.4975 47.1287 91.6848 47.1792C91.9082 47.3814 92.6645 47.7136 96.4106 49.2734C96.425 49.2806 96.4395 49.2806 96.4611 49.2806C96.4827 49.2662 96.5043 49.2446 96.5043 49.2157C96.5043 49.194 96.5043 49.1867 96.4611 49.1578C96.4611 49.1578 96.4467 49.1506 96.4394 49.1434C96.3314 49.0784 96.0288 48.9485 95.2076 48.5874C94.5376 48.2914 93.7667 47.9592 93.6083 47.8653C93.2697 47.6775 91.6056 46.1466 91.8649 45.5906C91.937 45.5978 92.1891 45.7422 92.4052 45.865C92.7654 46.0744 93.2193 46.3344 93.6731 46.4932C95.0059 47.0348 96.3314 47.5836 97.7938 48.3708C97.801 48.378 97.8081 48.378 97.8226 48.378C97.8226 48.378 97.837 48.378 97.8442 48.3708C97.8586 48.3635 97.8802 48.3491 97.8802 48.3346C97.8802 48.3346 97.8947 48.3274 97.8947 48.3202C97.8947 48.3057 97.8946 48.2841 97.8802 48.2624C97.8442 48.2046 97.7505 48.1036 97.4768 47.8292C97.1814 47.5403 96.5043 46.8687 96.5259 46.7387H96.5403C96.6412 46.6882 97.2679 46.977 97.873 47.2586C98.8384 47.7064 100.171 48.3202 101.482 48.6741C101.583 48.6885 101.713 48.7029 101.857 48.7246C102.901 48.8762 104.839 49.1506 105.61 49.4972C105.646 49.5117 105.682 49.4973 105.697 49.4684C105.718 49.4395 105.696 49.3962 105.675 49.3818C105.552 49.2951 105.502 49.2518 105.459 49.2157H105.452C105.819 47.6125 106.705 47.0565 107.389 46.8688C108.254 46.6304 109.169 46.8904 109.529 47.2659C109.529 47.2731 109.558 47.2803 109.572 47.2876C110.682 47.3887 110.876 47.6775 110.898 47.8364C110.919 48.0169 110.747 48.2119 110.581 48.313C110.595 48.2191 110.574 48.1324 110.53 48.0674C110.422 47.8941 110.177 47.858 109.94 47.8147C109.889 47.8075 109.839 47.8002 109.788 47.7858C109.695 47.7569 109.594 47.7209 109.5 47.6848C109.464 47.6703 109.428 47.6847 109.414 47.7208C109.399 47.7497 109.414 47.7858 109.435 47.8002C109.522 47.8652 109.637 47.8941 109.752 47.9158C109.781 47.9302 109.803 47.9375 109.832 47.9447C109.904 47.9664 109.968 47.9952 110.041 48.0169C109.99 48.0241 109.947 48.0241 109.882 48.0314C109.817 48.0314 109.738 48.0314 109.63 48.0458C109.522 48.0603 109.154 48.1325 108.974 48.4646C108.83 48.739 108.852 49.0929 109.039 49.5261C109.039 49.5261 109.042 49.5286 109.046 49.5334C109.046 49.5334 109.046 49.5551 109.054 49.5623C109.061 49.5912 109.075 49.6201 109.09 49.6634C109.111 49.7067 109.14 49.7645 109.19 49.815C109.198 49.8222 109.205 49.8295 109.212 49.8295C109.255 49.8511 109.299 49.88 109.342 49.9089C109.349 49.9089 109.349 49.9161 109.356 49.9233C109.407 49.9522 109.464 49.9883 109.522 50.0388H109.529V50.0461C109.623 50.1183 109.724 50.2049 109.824 50.3132C109.947 50.4216 110.069 50.5588 110.206 50.7104C110.221 50.7321 110.235 50.7465 110.257 50.7682C110.271 50.7898 110.285 50.8043 110.3 50.826L110.321 50.8476C110.379 50.9198 110.437 50.9921 110.502 51.0715C110.53 51.1148 110.566 51.1581 110.602 51.2087C110.617 51.2303 110.631 51.2448 110.646 51.2665C110.66 51.3243 110.696 51.3893 110.761 51.4759C110.783 51.5121 110.819 51.5481 110.855 51.5914C111.28 52.0825 112.259 52.8768 112.987 53.404C113.095 53.4834 113.189 53.5557 113.282 53.6134C113.282 53.6134 113.285 53.6158 113.29 53.6207C113.412 53.7073 113.527 53.7795 113.614 53.8372C113.614 53.8445 113.614 53.8445 113.614 53.8517C113.65 53.9095 113.693 53.9672 113.743 54.025C113.787 54.0755 113.83 54.1117 113.88 54.1695C113.959 54.2417 114.046 54.3139 114.14 54.3861C114.14 54.3933 114.154 54.4005 114.161 54.4078C114.226 54.4583 114.291 54.5088 114.356 54.5594C114.557 54.7182 114.831 54.9205 114.874 55.036H114.795H114.824ZM110.725 57.5345L110.71 57.4046C110.696 57.4552 110.674 57.5057 110.653 57.549C110.631 57.5851 110.617 57.614 110.595 57.6501C110.545 57.7368 110.487 57.8018 110.429 57.8451C110.422 57.8523 110.415 57.8596 110.408 57.8596C110.617 56.733 110.242 56.0686 109.443 54.6605H109.435C109.435 54.6605 109.392 54.6172 109.363 54.6244C109.342 54.6316 109.327 54.646 109.32 54.6605C109.313 54.6677 109.313 54.6822 109.313 54.6894V54.8916C109.291 55.6932 109.277 56.3864 109.205 56.9063V56.9352C109.313 57.2457 109.313 57.3035 109.32 57.5057C109.327 57.5418 109.327 57.5779 109.327 57.6284C109.212 57.5418 109.097 57.4046 108.982 57.253C108.946 57.2024 108.91 57.1591 108.881 57.1085H108.873C108.845 57.0507 108.809 57.0002 108.787 56.9569L108.816 57.1302C108.816 57.1302 108.816 57.1374 108.816 57.1447C108.845 57.1808 108.873 57.224 108.902 57.2674C108.902 57.2674 108.902 57.3035 108.902 57.3685C108.924 57.3974 108.946 57.4262 108.967 57.4479C109.097 57.614 109.241 57.7512 109.378 57.809C109.399 57.8162 109.421 57.8162 109.443 57.8017C109.464 57.7873 109.471 57.7657 109.471 57.744C109.464 57.6357 109.457 57.5635 109.457 57.4985C109.443 57.2963 109.443 57.224 109.342 56.9063C109.414 56.3936 109.428 55.7148 109.443 54.9349C110.221 56.3142 110.473 56.8919 110.257 57.9245C110.249 57.9534 110.271 57.9823 110.3 57.9967C110.343 58.0112 110.415 58.0184 110.509 57.9534C110.545 57.9318 110.574 57.8957 110.602 57.8523C110.631 57.8307 110.646 57.8018 110.667 57.7729V57.6718C110.682 57.6285 110.703 57.5851 110.725 57.5418V57.5345ZM111.287 54.3788L111.344 54.3356C111.344 54.3356 111.308 54.3138 111.294 54.2922C111.272 54.285 111.258 54.2706 111.236 54.2561H111.229C111.064 54.0323 110.847 53.8084 110.581 53.5773C110.559 53.5484 110.523 53.5484 110.494 53.5773C110.473 53.5989 110.466 53.635 110.487 53.6639C110.66 53.9095 110.883 54.1406 111.128 54.3356C111.143 54.35 111.157 54.3716 111.164 54.3861C111.179 54.4077 111.193 54.4222 111.208 54.4439L111.258 54.4005C111.258 54.4005 111.236 54.3717 111.222 54.35L111.236 54.3356C111.236 54.3356 111.265 54.3716 111.287 54.3788ZM112.151 53.6495L112.101 53.599C111.95 53.4401 111.842 53.2957 111.777 53.1802C111.762 53.1513 111.741 53.1368 111.712 53.144C111.683 53.144 111.661 53.1656 111.654 53.1945C111.618 53.3029 111.733 53.4762 111.957 53.7145C111.971 53.729 111.986 53.7434 112 53.7578C112.014 53.7723 112.029 53.7867 112.05 53.8084L112.101 53.7723C112.101 53.7723 112.072 53.7362 112.058 53.7218L112.101 53.6856C112.101 53.6856 112.13 53.7217 112.144 53.7361L112.195 53.7001C112.195 53.7001 112.166 53.6639 112.151 53.6495ZM113.318 53.5556H113.311C113.311 53.5556 113.304 53.5485 113.304 53.5412C113.246 53.4979 113.181 53.4545 113.109 53.4112C112.965 53.3029 112.814 53.1874 112.648 53.0646C112.382 52.8552 112.094 52.6313 111.834 52.4074C111.705 52.2991 111.589 52.1981 111.474 52.097C111.402 52.032 111.33 51.967 111.272 51.902C111.208 51.8442 111.143 51.7864 111.092 51.7287C110.984 51.6204 110.898 51.5265 110.833 51.4398C110.833 51.4326 110.833 51.4253 110.826 51.4253C110.797 51.382 110.775 51.3531 110.754 51.3242C110.739 51.2954 110.725 51.2665 110.725 51.2448C110.71 51.2448 110.703 51.2448 110.689 51.2376C110.667 51.2304 110.638 51.2231 110.617 51.2087C110.631 51.2303 110.646 51.2448 110.66 51.2665C110.674 51.3243 110.711 51.3893 110.775 51.4759C110.797 51.5121 110.833 51.5481 110.869 51.5914C111.294 52.0825 112.274 52.8768 113.001 53.404C113.109 53.4834 113.203 53.5557 113.297 53.6134C113.297 53.6134 113.299 53.6158 113.304 53.6207L113.635 53.7723C113.549 53.7145 113.441 53.6423 113.318 53.5556Z" fill="#000100" /> 
 <path d="M98.6582 48.6957C98.6582 48.6957 98.0819 49.0929 97.3759 49.0712C97.556 49.7283 99.0329 49.2228 99.0329 49.2228C99.0329 49.2228 98.3197 49.945 97.8082 50.0677C98.1108 50.2988 99.4003 50.2194 99.6164 50.1039C99.8325 49.9883 100.214 49.5334 100.214 49.5334C100.214 49.5334 98.8888 50.9343 98.7015 50.9271C98.6727 51.0932 100.092 51.0354 100.38 50.7899C100.675 50.5444 101.41 50.1833 101.41 50.1833C101.41 50.1833 99.4723 51.4254 99.3858 51.4254C100.113 51.5987 101.561 51.2159 102.491 50.6888C101.115 51.5337 100.992 51.6853 100.286 51.967C100.913 52.0969 101.23 52.4797 103.341 51.642C104.551 51.1149 105.235 50.1544 105.235 50.1544C104.486 51.0787 103.298 51.8659 101.986 52.6386C101.907 52.7758 103.384 53.3535 105.272 51.5481L98.651 48.7174L98.6582 48.6957Z" fill="#EF7E04" /> 
 <path d="M102.671 52.8841C102.304 52.8841 102.059 52.7902 101.986 52.7325C101.9 52.6675 101.929 52.6024 101.936 52.588C101.936 52.5808 101.951 52.5664 101.958 52.5592C102.426 52.2848 102.894 51.9959 103.341 51.6926C101.576 52.393 101.057 52.2414 100.56 52.0898C100.466 52.0609 100.373 52.032 100.272 52.0103C100.243 52.0103 100.222 51.9814 100.222 51.9525C100.222 51.9236 100.236 51.8948 100.265 51.8875C100.747 51.6926 100.949 51.5625 101.497 51.2159C101.533 51.1943 101.569 51.1726 101.605 51.151C100.805 51.4398 99.9117 51.6132 99.3714 51.476C99.3354 51.4687 99.3138 51.4398 99.3211 51.4037C99.3283 51.3676 99.357 51.3459 99.3859 51.3459C99.4291 51.3315 99.6597 51.1943 99.9694 50.9993C99.494 51.0932 98.8456 51.1005 98.6943 51.0138C98.6295 50.9777 98.6294 50.9271 98.6366 50.9055C98.6366 50.8694 98.6799 50.8404 98.7087 50.8476C98.7808 50.8332 99.0833 50.5661 99.4507 50.2122C99.004 50.2989 98.0531 50.3278 97.7722 50.1111C97.7506 50.0967 97.7433 50.0677 97.7505 50.0461C97.7505 50.0172 97.7722 50.0028 97.801 49.9956C98.1252 49.9234 98.5502 49.5767 98.788 49.3601C98.4494 49.4467 97.8802 49.5479 97.556 49.3745C97.4336 49.3096 97.3543 49.2084 97.3183 49.0857C97.3183 49.064 97.3183 49.0424 97.3328 49.0279C97.3472 49.0135 97.3687 49.0062 97.3904 48.999C98.0747 49.0279 98.6294 48.638 98.6366 48.638C98.6654 48.6163 98.7087 48.6235 98.7303 48.6524C98.7519 48.6813 98.7448 48.7246 98.7159 48.7463C98.6943 48.7607 98.1684 49.1217 97.4912 49.1362C97.52 49.1867 97.5633 49.2301 97.6281 49.259C98.0532 49.4828 99.0185 49.1579 99.0257 49.1579C99.0545 49.1506 99.0905 49.1579 99.1049 49.1868C99.1193 49.2157 99.1193 49.2445 99.0977 49.2662C99.0689 49.2951 98.4998 49.8728 98.0099 50.075C98.4349 50.205 99.4219 50.1399 99.6092 50.0388C99.6452 50.0172 99.6956 49.9883 99.7389 49.945C99.8901 49.7933 100.041 49.6345 100.193 49.4757C100.214 49.4468 100.258 49.4468 100.286 49.4757C100.315 49.4973 100.315 49.5406 100.286 49.5695C100.272 49.584 100.049 49.8584 99.8397 50.0317C99.4939 50.3856 99.0905 50.7755 98.86 50.9199C99.1626 50.9705 100.121 50.9199 100.358 50.7249C100.654 50.4794 101.374 50.1256 101.403 50.1111C101.432 50.0967 101.475 50.1111 101.489 50.14C101.504 50.1688 101.497 50.2122 101.468 50.2266C100.539 50.8188 99.919 51.2088 99.6164 51.3749C100.337 51.4399 101.598 51.1149 102.476 50.6166C102.505 50.5949 102.548 50.6166 102.57 50.6383C102.592 50.6599 102.577 50.7105 102.548 50.7322C102.131 50.9849 101.828 51.1798 101.59 51.3315C101.108 51.6348 100.891 51.7792 100.524 51.9381C100.56 51.9453 100.589 51.9597 100.625 51.967C101.108 52.1114 101.597 52.2559 103.341 51.5626C103.759 51.3821 104.119 51.1438 104.4 50.9127C104.702 50.6527 104.976 50.3783 105.207 50.0967C105.228 50.0678 105.271 50.0606 105.3 50.0822C105.329 50.1039 105.336 50.1472 105.315 50.1761C105.293 50.205 104.991 50.6166 104.443 51.0498C103.759 51.6276 102.93 52.1548 102.109 52.6386C102.159 52.6675 102.275 52.718 102.462 52.7397C102.858 52.783 103.924 52.7541 105.25 51.4831C105.279 51.4614 105.322 51.4614 105.344 51.4831C105.372 51.512 105.365 51.5553 105.344 51.577C104.241 52.6313 103.298 52.8841 102.692 52.8841H102.671Z" fill="#000100" /> 
 <path d="M108.888 52.6095C108.888 52.6095 109.018 53.1583 109.522 53.5844C110.033 54.0032 110.069 54.4148 110.069 54.4148L108.888 52.6095Z" fill="#EF7E04" /> 
 <path d="M110.069 54.4799C110.069 54.4799 110.004 54.451 110.004 54.4221C110.004 54.4221 109.961 54.0322 109.479 53.635C108.96 53.2017 108.823 52.6529 108.823 52.624C108.816 52.5879 108.837 52.5518 108.873 52.5446C108.909 52.5374 108.945 52.559 108.953 52.5951C108.953 52.5951 109.082 53.1295 109.565 53.5339C110.091 53.9672 110.134 54.3932 110.134 54.4077C110.134 54.4438 110.112 54.4799 110.076 54.4799H110.069Z" fill="#000100" /> 
 <path d="M108.636 49.0281C108.636 49.0281 108.816 49.5191 109.335 49.8369C109.868 50.1546 110.674 51.1439 110.732 51.3244C110.797 51.5338 111.1 53.0647 111.078 53.2308L108.636 49.0281Z" fill="#EF7E04" /> 
 <path d="M111.078 53.2957C111.078 53.2957 111.078 53.2957 111.071 53.2957C111.035 53.2957 111.006 53.2524 111.013 53.2163C111.035 53.0719 110.739 51.5626 110.675 51.3388C110.617 51.1727 109.817 50.1978 109.306 49.8945C108.773 49.5695 108.585 49.0712 108.578 49.0496C108.564 49.0135 108.578 48.9774 108.621 48.9629C108.657 48.9485 108.693 48.963 108.708 49.0063C108.708 49.0063 108.888 49.4829 109.378 49.7789C109.925 50.1039 110.739 51.1149 110.804 51.3026C110.855 51.4904 111.179 53.0574 111.15 53.2452C111.15 53.2813 111.114 53.3029 111.085 53.3029L111.078 53.2957Z" fill="#000100" /> 
 <path d="M105.387 49.786C105.423 49.9738 104.638 50.9197 105.718 52.0318C104.738 53.1295 104.738 53.274 104.738 53.274C104.738 53.274 105.286 53.5555 106.266 52.7829C107.879 54.6099 107.346 55.4476 107.346 55.4476L105.387 49.7932V49.786Z" fill="#EF7E04" /> 
 <path d="M107.346 55.5126C107.346 55.5126 107.325 55.5126 107.31 55.4981C107.281 55.4765 107.267 55.4404 107.289 55.4043C107.289 55.397 107.764 54.5955 106.258 52.8696C105.286 53.6134 104.731 53.339 104.71 53.3317C104.688 53.3173 104.674 53.2957 104.674 53.274C104.674 53.1729 105.019 52.7179 105.632 52.0319C104.803 51.1437 105.113 50.3566 105.264 49.9738C105.293 49.9016 105.329 49.815 105.322 49.7933C105.322 49.7572 105.344 49.7211 105.38 49.7139C105.416 49.7139 105.452 49.7283 105.459 49.7644C105.473 49.8221 105.444 49.9017 105.394 50.0244C105.243 50.4144 104.954 51.1365 105.776 51.9814C105.797 52.003 105.805 52.0464 105.776 52.0752C105.106 52.8263 104.897 53.1295 104.839 53.2306C105.005 53.274 105.488 53.3173 106.237 52.7252C106.266 52.7035 106.302 52.7035 106.33 52.7324C107.959 54.5738 107.44 55.4403 107.411 55.4765C107.397 55.4981 107.375 55.5054 107.353 55.5054L107.346 55.5126Z" fill="#000100" /> 
 <path d="M107.217 54.1551C107.217 54.1551 107.065 53.9601 107.332 53.2235C107.57 53.4907 107.836 53.5412 107.951 53.6495C108.067 53.7579 109.291 53.9168 109.363 54.6678L107.209 54.1479L107.217 54.1551Z" fill="#EF7E04" /> 
 <path d="M109.371 54.74C109.371 54.74 109.306 54.7111 109.306 54.6822C109.248 54.1551 108.549 53.9312 108.175 53.8157C108.023 53.7652 107.944 53.7435 107.908 53.7074C107.872 53.6713 107.814 53.6424 107.742 53.6063C107.634 53.5485 107.498 53.4763 107.361 53.3535C107.166 53.9457 107.267 54.1189 107.274 54.1189C107.296 54.1478 107.289 54.1912 107.26 54.2128C107.231 54.2345 107.188 54.2273 107.166 54.1984C107.152 54.1767 107 53.9528 107.274 53.2091C107.281 53.1874 107.303 53.173 107.325 53.1658C107.346 53.1658 107.368 53.1658 107.389 53.1875C107.534 53.3463 107.685 53.4257 107.815 53.4907C107.894 53.534 107.959 53.5629 108.009 53.6135C108.031 53.6279 108.131 53.664 108.225 53.6929C108.629 53.8229 109.385 54.0612 109.45 54.675C109.45 54.7111 109.428 54.7472 109.392 54.7472L109.371 54.74Z" fill="#000100" /> 
 <path d="M108.65 47.2804C108.65 47.2226 108.405 46.7387 107.49 47.3453C107.98 47.3742 108.47 47.6342 108.65 47.2804Z" fill="#EF7E04" /> 
 <path d="M108.528 47.0421C108.348 46.9482 108.023 46.9121 107.454 47.2948C107.425 47.3092 107.418 47.3381 107.425 47.367C107.433 47.3959 107.454 47.4103 107.483 47.4175C107.627 47.4175 107.764 47.4537 107.901 47.4753C108.045 47.5042 108.182 47.5331 108.312 47.5331C108.477 47.5331 108.621 47.4826 108.708 47.3165C108.715 47.302 108.715 47.2948 108.715 47.2803C108.715 47.2226 108.65 47.1071 108.528 47.0421ZM107.692 47.302C108.074 47.0854 108.297 47.0926 108.427 47.1432C108.52 47.1793 108.564 47.2442 108.578 47.2731C108.47 47.4392 108.261 47.4103 107.93 47.3453C107.85 47.3309 107.771 47.3165 107.692 47.302Z" fill="#000100" /> 
 <path d="M117.403 49.4973C117.446 49.519 120.141 50.0534 121.041 49.7862C119.896 51.1871 117.605 50.2411 117.605 50.2411C118.729 50.5516 118.772 50.53 119.132 50.8189C119.247 51.0861 117.064 50.9633 116.344 50.595C118.34 51.1727 118.39 51.1294 118.455 51.3605C118.541 51.671 115.177 51.281 114.882 50.8622C115.782 51.5048 116.272 51.6277 116.769 51.9165C116.164 52.162 115.04 52.4148 112.973 51.0716C115.688 53.3391 118.138 53.1947 118.52 53.6135C117.576 54.8917 113.916 52.8481 112.23 51.8154C110.545 50.7828 115.912 54.314 116.409 54.249C116.164 54.6028 114.385 54.2923 114.276 54.1262L117.396 49.5045L117.403 49.4973Z" fill="#EF7E04" /> 
 <path d="M115.775 54.4728H115.746C115.199 54.4728 114.327 54.3068 114.226 54.1623C114.204 54.1335 114.212 54.0901 114.24 54.0685C114.269 54.0468 114.312 54.054 114.334 54.0829C114.406 54.1624 115.285 54.3718 115.919 54.3356C116.077 54.3284 116.178 54.3067 116.25 54.2778C115.407 53.9962 112.389 52.0176 111.914 51.6926C111.899 51.6926 111.892 51.6854 111.892 51.6854L111.849 51.6493C111.834 51.6205 111.849 51.5915 111.863 51.5698C111.892 51.5458 112.026 51.6059 112.267 51.7504C113.808 52.6964 117.453 54.74 118.426 53.6135C118.289 53.5196 118.001 53.4547 117.612 53.3608C116.567 53.1153 114.817 52.6964 112.929 51.115C112.901 51.0933 112.901 51.05 112.915 51.0211C112.937 50.9922 112.973 50.985 113.001 51.0066C114.874 52.2198 115.948 52.1259 116.603 51.8948C116.481 51.8299 116.351 51.7649 116.214 51.7071C115.883 51.5482 115.508 51.3749 114.997 51.0282C114.91 50.9849 114.846 50.9416 114.817 50.8983C114.795 50.8694 114.802 50.8333 114.824 50.8116C114.846 50.79 114.882 50.7828 114.91 50.8116C114.975 50.855 115.033 50.8983 115.091 50.9344C115.458 51.1005 116.337 51.281 117.259 51.3677C117.958 51.4327 118.296 51.4038 118.368 51.3677C118.332 51.2449 118.289 51.2304 117.309 50.956C117.273 50.9488 117.237 50.9344 117.201 50.9272C116.834 50.8622 116.502 50.7755 116.294 50.6672C116.265 50.6527 116.25 50.6166 116.265 50.5805C116.279 50.5516 116.315 50.53 116.344 50.5445C116.711 50.6528 117.014 50.7394 117.259 50.8044C118.008 50.9272 118.865 50.9416 119.031 50.8549C118.837 50.7033 118.736 50.6456 118.44 50.5589C117.936 50.465 117.569 50.3206 117.561 50.3133C117.525 50.2989 117.511 50.2628 117.525 50.2267C117.54 50.1906 117.576 50.1762 117.605 50.1834C117.77 50.2267 117.907 50.2701 118.03 50.299C118.217 50.3495 118.361 50.3856 118.476 50.4217C119.182 50.5444 120.162 50.5589 120.832 49.9018C119.773 50.0606 117.432 49.5985 117.353 49.5624C117.317 49.5479 117.302 49.5046 117.317 49.4757C117.331 49.4468 117.367 49.4324 117.403 49.4396C117.525 49.4757 120.148 49.9812 120.998 49.7285C121.027 49.7212 121.055 49.7285 121.07 49.7574C121.084 49.779 121.084 49.8151 121.07 49.8368C120.501 50.5373 119.658 50.6672 118.937 50.6167C119.002 50.66 119.074 50.7105 119.154 50.7755C119.161 50.7755 119.168 50.79 119.175 50.8044C119.197 50.8477 119.182 50.8983 119.146 50.9344C119.038 51.0355 118.57 51.0572 118.037 51.0211C118.426 51.1439 118.462 51.1944 118.505 51.346C118.505 51.3677 118.527 51.4399 118.426 51.4832C118.123 51.6276 116.51 51.476 115.537 51.2232C115.818 51.3893 116.049 51.4976 116.272 51.5987C116.452 51.6854 116.625 51.7648 116.791 51.8659C116.812 51.8804 116.827 51.902 116.827 51.9309C116.827 51.9598 116.812 51.9815 116.783 51.9887C116.222 52.2198 115.335 52.4003 113.851 51.6709C115.386 52.7108 116.762 53.043 117.633 53.2452C118.109 53.3608 118.426 53.4329 118.556 53.5774C118.577 53.599 118.577 53.6351 118.556 53.664C117.857 54.61 115.775 53.8446 113.938 52.8842C115.011 53.5413 116.15 54.1984 116.366 54.1984H116.373C116.402 54.1984 116.423 54.2056 116.438 54.2273C116.452 54.249 116.452 54.2778 116.438 54.2995C116.351 54.4223 116.113 54.4873 115.746 54.4873L115.775 54.4728Z" fill="#000100" /> 
 <path d="M118.095 51.873C117.778 51.9164 116.834 51.9164 116.704 51.8947L118.095 51.873Z" fill="#EF7E04" /> 
 <path d="M117.194 51.9742C116.956 51.9742 116.747 51.9742 116.69 51.9598C116.654 51.9598 116.625 51.9237 116.632 51.8803C116.632 51.8442 116.668 51.8154 116.711 51.8226C116.841 51.8443 117.778 51.8442 118.087 51.8009C118.131 51.8009 118.159 51.8225 118.159 51.8586C118.159 51.8947 118.138 51.9308 118.102 51.9308C117.914 51.9525 117.518 51.967 117.194 51.967V51.9742Z" fill="#000100" /> 
 <path d="M97.8658 48.3273C97.8658 48.3273 99.9118 49.3238 100.783 49.2516C100.553 49.4538 100.207 49.5333 100.207 49.5333C100.423 49.6127 101.021 49.9088 101.929 49.721C101.713 49.9232 101.432 50.1398 101.432 50.1398C101.432 50.1398 102.21 50.407 103.089 49.9882C102.822 50.2915 102.671 50.5153 102.671 50.5153L103.283 50.5515L97.873 48.3273H97.8658Z" fill="#EF7E04" /> 
 <path d="M103.276 50.6166L102.664 50.5804C102.664 50.5804 102.62 50.5661 102.606 50.5444C102.599 50.5227 102.599 50.4939 102.606 50.4794C102.606 50.4794 102.7 50.3494 102.851 50.1544C102.073 50.4288 101.432 50.2122 101.403 50.205C101.381 50.1978 101.36 50.1761 101.36 50.1544C101.36 50.1328 101.36 50.1039 101.381 50.0895C101.381 50.0895 101.533 49.9667 101.698 49.8223C100.978 49.9161 100.466 49.7139 100.236 49.62L100.171 49.5984C100.171 49.5984 100.128 49.5623 100.128 49.5334C100.128 49.5045 100.149 49.4829 100.178 49.4757C100.178 49.4757 100.373 49.4323 100.553 49.3239C99.6019 49.2517 97.9018 48.4286 97.8225 48.3925C97.7865 48.378 97.7722 48.3347 97.7938 48.3058C97.8082 48.2697 97.8514 48.2552 97.8802 48.2769C97.9018 48.2841 99.9189 49.259 100.762 49.194C100.791 49.194 100.819 49.2084 100.827 49.2373C100.841 49.2662 100.827 49.2951 100.812 49.3167C100.683 49.4323 100.517 49.5045 100.394 49.5551C100.683 49.6634 101.194 49.8151 101.9 49.6706C101.929 49.6706 101.958 49.6778 101.972 49.7067C101.986 49.7356 101.979 49.7645 101.958 49.7861C101.821 49.9089 101.662 50.0461 101.561 50.1255C101.814 50.1761 102.404 50.2555 103.045 49.945C103.074 49.9305 103.11 49.945 103.125 49.9667C103.146 49.9955 103.139 50.0244 103.125 50.0533C102.966 50.2338 102.851 50.3856 102.779 50.4794L103.269 50.5083C103.305 50.5083 103.334 50.5443 103.334 50.5804C103.334 50.6166 103.305 50.6455 103.269 50.6455L103.276 50.6166Z" fill="#000100" /> 
 <path d="M159.935 79.9567L157.997 78.7074C154.475 76.4255 151.723 72.5187 149.036 68.1065C148.322 66.9366 147.616 65.7235 146.896 64.5031C140.095 52.9345 132.452 39.9001 112.418 38.4053C111.164 38.3114 109.853 38.2609 108.499 38.2609H51.5011C50.1468 38.2609 48.8356 38.3114 47.5821 38.4053C27.5407 39.9001 19.8973 52.9345 13.104 64.5031C11.0797 67.9621 9.113 71.2984 6.923 74.0425C6.69247 74.3313 6.46197 74.6201 6.22423 74.8945C4.92032 76.411 3.52996 77.7109 1.99551 78.7074L0 80L1.99551 81.2998C2.62226 81.7042 3.22732 82.1664 3.81084 82.6647C4.00534 82.838 4.19268 83.0113 4.38719 83.1846C4.50966 83.3073 4.63934 83.4229 4.76181 83.5456C4.89148 83.6684 5.01396 83.7912 5.13643 83.9212C5.50383 84.2967 5.86404 84.6939 6.22423 85.1055C6.46197 85.3799 6.69247 85.6615 6.923 85.9504C9.113 88.7017 11.0724 92.0452 13.104 95.5042C19.8685 107.037 27.4903 120.006 47.3588 121.58C48.6844 121.681 50.0675 121.739 51.5011 121.739H108.499C109.932 121.739 111.316 121.681 112.641 121.58C123.238 120.735 130.348 116.655 135.701 111.283C135.773 111.21 135.838 111.145 135.91 111.073C136.177 110.799 136.436 110.532 136.688 110.257C137.653 109.225 138.561 108.141 139.418 107.037C142.285 103.346 144.641 99.3459 146.896 95.4969C149.561 90.9547 152.112 86.6075 155.231 83.5456C155.663 83.1124 156.11 82.708 156.571 82.3325C156.801 82.1448 157.032 81.9642 157.277 81.7909C157.507 81.6176 157.752 81.4515 157.997 81.2998L159.935 80.0433L160 80L159.935 79.9567ZM146.233 95.107C143.28 100.133 140.168 105.441 135.91 109.932C130.464 115.702 123.137 120.122 111.899 120.865C110.804 120.938 109.673 120.974 108.499 120.974H51.5011C28.9527 120.974 20.8843 107.232 13.7668 95.107C10.3017 89.2071 7.03105 83.6395 2.41331 80.6499L1.41195 80L2.41331 79.3501C7.03105 76.3605 10.3017 70.7928 13.7668 64.893C20.8843 52.7685 28.9527 39.0335 51.5011 39.0335H108.499C131.047 39.0335 139.116 52.7685 146.233 64.893C146.867 65.9835 147.501 67.0594 148.135 68.1065C150.945 72.757 153.812 76.9165 157.579 79.3501L158.581 80L157.579 80.6499C152.962 83.6395 149.691 89.2071 146.233 95.107Z" fill="white" /> 
 <path d="M51.5 39.2609H108.493C119.757 39.2609 127.316 42.6655 132.949 47.5255C138.626 52.4226 142.4 58.835 146.023 65.0079C147.726 67.909 149.412 70.7829 151.238 73.2921C153.065 75.8028 155.074 78.0073 157.452 79.546H157.453L158.156 80.0001L157.453 80.4552L157.452 80.4562C155.074 81.9949 153.066 84.1993 151.239 86.7101C149.414 89.2192 147.731 92.0923 146.031 94.9933C142.408 101.166 138.631 107.579 132.953 112.476C127.318 117.336 119.757 120.741 108.493 120.741H51.5C40.2363 120.741 32.6766 117.337 27.043 112.477C21.3663 107.579 17.592 101.166 13.9688 94.9933L12.6924 92.8302C11.4142 90.682 10.1234 88.5946 8.75391 86.712C6.92713 84.2009 4.91952 81.995 2.54102 80.4562H2.54199L1.83887 80.0001L2.54102 79.545C4.91929 78.0063 6.92697 75.8026 8.75391 73.2921C10.58 70.7828 12.2657 67.9091 13.9688 65.0079C17.5919 58.835 21.3664 52.4227 27.043 47.5255C32.6766 42.6654 40.2363 39.2609 51.5 39.2609Z" stroke="#F6F8F9" stroke-width="2" /> 
</svg>